<svg xmlns="http://www.w3.org/2000/svg" width="9.37767mm" height="15.58913mm" viewBox="0 0 26.58238 44.18967">
  <title>about</title>
  <path d="M345.943,266.42956c-1.2302-5.6456,12.1401-4.99736,14.56935-3.07066,5.92657,4.7005-4.49025,9.13857-7.1987,10.75447-5.946,3.54747-5.87619,9.56127-4.61614,15.73947,0.64255,3.15054,5.46309,1.81712,4.8214-1.3292-0.45256-2.219-.99138-4.46847-0.29573-6.68564,0.8632-2.75117,2.92833-3.44615,5.25286-4.747a23.38543,23.38543,0,0,0,6.59518-5.16924c3.24139-3.8696,3.38195-8.77371-.73172-12.00675-6.65541-5.23066-25.78859-3.95357-23.21789,7.84378,0.68475,3.14246,5.506,1.81263,4.8214-1.3292h0Z" transform="translate(-340.88557 -256.98322)" fill="#fff"/>
  <path d="M351.33978,293.47914a4.99907,4.99907,0,0,0-4.55642,2.24239,3.79266,3.79266,0,0,0,1.49823,5.08716c2.28938,1.1502,4.57882-.5916,5.0701-2.88133a3.65176,3.65176,0,0,0-.86714-3.45722,3.20363,3.20363,0,0,0-3.84413-.49984,2.5004,2.5004,0,0,0,2.5236,4.31735,1.54909,1.54909,0,0,1-1.83325-.05608,0.861,0.861,0,0,1-.59591-0.59535,0.99159,0.99159,0,0,1-.26013-0.70832l0.05557-.32974a3.2368,3.2368,0,0,1-.10786.39742c-0.06536.27128,0.2779-.47695,0.03729-0.12555a1.691,1.691,0,0,1,2.24843-.42c-0.31966-.16684.29709,0.2716,0.375,0.35773a0.37315,0.37315,0,1,0,.09729.11256q-0.14256-.25578.1323,0.32777c-0.09517-.327.01965,0.26824,0.02279,0.3118-0.03168-.4389-0.141.61575-0.02806,0.19681a1.63121,1.63121,0,0,1-.363.66607c0.3302-.37048-0.30706.3078-0.12,0.08693a1.55463,1.55463,0,0,1,.18836-0.10013l-0.328.14661a1.66481,1.66481,0,0,0,.357-0.09185c0.29089-.0824-0.59112.02289-0.146,0.0224,0.148-.00016.29554-0.00951,0.44382-0.00763a2.5,2.5,0,0,0,0-5h0Z" transform="translate(-340.88557 -256.98322)" fill="#fff"/>
</svg>
