<svg xmlns="http://www.w3.org/2000/svg" width="34.62319mm" height="8.50785mm" viewBox="0 0 98.14448 24.11675">
  <title>colapso</title>
  <path d="M132.72581,429.34046c2.89071-1.36709,4.14525-4.47311,5.11445-7.31828,0.77988-2.2894-2.841-3.27224-3.616-.9969-0.66578,1.95446-1.40189,4.13642-3.3911,5.07717-2.18028,1.0311-.27922,4.26517,1.8927,3.238h0Z" transform="translate(-122.32128 -405.91463)" fill="#fff"/>
  <path d="M134.46881,407.54211c-15.29234-3.13989-16.28461,26.153-2.1909,21.98736,2.30912-.6825,1.3261-4.30264-0.9969-3.616-7.96635,2.35458-6.88143-16.618,2.1909-14.75527,2.35556,0.48365,3.363-3.13023.9969-3.616h0Z" transform="translate(-122.32128 -405.91463)" fill="#fff"/>
  <path d="M151.69233,421.6437c5.53586-1.49189-.4414-9.13509-2.8274-10.75692-6.17111-4.19467-10.13627,1.66007-10.91607,7.45532-0.703,5.2244.90456,12.84481,7.78559,11.54184,7.338-1.3895,6.63895-9.85641,6.56941-15.46421-0.0299-2.41129-3.78-2.41786-3.75,0,0.03245,2.61725.52253,5.42263-.13984,7.99418-0.47143,1.83027-1.66677,3.76-3.79466,3.86592-2.25971.11252-2.75247-1.96147-2.97682-3.74016-0.29713-2.35576-.24682-6.43731,1.51974-8.30714,1.55739-1.64843,3.49611-.54511,4.79873.751,0.49486,0.49241,1.85023,3.28237,2.73442,3.04409-2.32766.62729-1.34,4.24582,0.9969,3.616h0Z" transform="translate(-122.32128 -405.91463)" fill="#fff"/>
  <path d="M218.1842,421.6437c5.53586-1.49189-.4414-9.13509-2.8274-10.75692-6.17111-4.19467-10.13627,1.66007-10.91607,7.45532-0.703,5.2244.90456,12.84481,7.78559,11.54184,7.338-1.3895,6.63895-9.85641,6.56941-15.46421-0.0299-2.41129-3.78-2.41786-3.75,0,0.03245,2.61725.52253,5.42263-.13984,7.99418-0.47143,1.83027-1.66677,3.76-3.79466,3.86592-2.25971.11252-2.75247-1.96147-2.97682-3.74016-0.29713-2.35576-.24682-6.43731,1.51974-8.30714,1.55739-1.64843,3.49611-.54511,4.79873.751,0.49486,0.49241,1.85023,3.28237,2.73442,3.04409-2.32766.62729-1.34,4.24582,0.9969,3.616h0Z" transform="translate(-122.32128 -405.91463)" fill="#fff"/>
  <path d="M178.81369,408.55595c-0.71577,6.40633,1.026,12.67137.99974,19.07034-0.00991,2.41333,3.74008,2.41647,3.75,0,0.02626-6.39883-1.71553-12.66383-.99974-19.07034,0.26755-2.39467-3.48457-2.37563-3.75,0h0Z" transform="translate(-122.32128 -405.91463)" fill="#fff"/>
  <path d="M180.79627,409.72046c2.53073-.15089,8.49818-0.76787,8.0884,3.28167-0.30512,3.01523-4.18021,4.72526-6.84161,4.6513-2.414-.06709-2.41218,3.683,0,3.75,4.74888,0.132,10.43616-3.32543,10.61857-8.48638,0.23238-6.57437-6.93441-7.24059-11.86536-6.94658-2.39822.143-2.41458,3.894,0,3.75h0Z" transform="translate(-122.32128 -405.91463)" fill="#fff"/>
  <path d="M155.68959,429.62872l7.19076-1.11626c2.3775-.36907,1.36783-3.98314-0.9969-3.616l-7.19076,1.11626c-2.3775.36907-1.36783,3.98314,0.9969,3.616h0Z" transform="translate(-122.32128 -405.91463)" fill="#fff"/>
  <path d="M153.52858,408.44059q0.198,9.69516-.21244,19.38011c-0.10222,2.413,3.648,2.4082,3.75,0q0.41044-9.68849.21244-19.38011c-0.04921-2.40982-3.79938-2.41807-3.75,0h0Z" transform="translate(-122.32128 -405.91463)" fill="#fff"/>
  <path d="M168.403,427.63157a8.61552,8.61552,0,0,1,.83334-4.3601c1.05929-2.15858-2.17378-4.06137-3.238-1.8927a12.50851,12.50851,0,0,0-1.34533,6.2528c0.13262,2.39987,3.88347,2.41533,3.75,0h0Z" transform="translate(-122.32128 -405.91463)" fill="#fff"/>
  <path d="M169.7727,408.01549A157.77226,157.77226,0,0,0,164.72,427.13312c-0.46708,2.357,3.1466,3.36584,3.616.9969a157.77227,157.77227,0,0,1,5.05268-19.11763c0.7628-2.2954-2.85744-3.27965-3.616-.9969h0Z" transform="translate(-122.32128 -405.91463)" fill="#fff"/>
  <path d="M171.12187,411.20043q1.625,8.24765,2.90953,16.55379l2.30647-2.30647-0.542-.30248c-1.731-1.68368-4.38539.96526-2.65165,2.65165a4.08632,4.08632,0,0,0,2.19677,1.26687,1.90141,1.90141,0,0,0,2.30647-2.30647q-1.28489-8.30743-2.90953-16.55379c-0.46608-2.36561-4.08124-1.3642-3.616.9969h0Z" transform="translate(-122.32128 -405.91463)" fill="#fff"/>
  <path d="M167.2812,424.67559a40.76845,40.76845,0,0,1,8.55822-2.09379c2.36151-.3004,2.39152-4.05421,0-3.75a45.10782,45.10782,0,0,0-9.55512,2.22774c-2.2566.80547-1.284,4.43019,0.9969,3.616h0Z" transform="translate(-122.32128 -405.91463)" fill="#fff"/>
  <path d="M199.75522,407.146c-3.95782-.04878-7.531,3.54982-5.84509,7.64845,0.92773,2.25535,3.47045,3.69644,5.009,5.512,0.91377,1.07823,1.54477,1.6628,1.48635,3.14188-0.06978,1.76676.004,1.07662-1.28015,1.5481-2.89871,1.06427-6.1169-.8894-4.94225-4.09351,0.83194-2.26928-2.79083-3.24785-3.616-.9969-2.698,7.35936,5.74757,10.80152,11.50758,8.11047,2.519-1.17687,3.16353-3.78214,2.23781-6.30568a14.80136,14.80136,0,0,0-3.15415-4.53c-1.0235-1.13227-7.13989-6.3555-1.4031-6.28479,2.41386,0.02975,2.41529-3.72023,0-3.75h0Z" transform="translate(-122.32128 -405.91463)" fill="#fff"/>
</svg>
