<svg xmlns="http://www.w3.org/2000/svg" width="143.38629mm" height="26.56764mm" viewBox="0 0 406.44931 75.30983">
  <title>creds</title>
  <path d="M413.91292,204.17663c-5.2147-.04317-8.02909,5.30365-5.35255,9.71135,1.6105,2.65216,4.43358,4.19111,6.69656,6.19548,1.74627,1.5467,3.34986,3.83218-.17208,3.89853a8.75313,8.75313,0,0,1-6.334-2.55524c-1.73071-1.684-4.38512.965-2.65165,2.65165,3.10718,3.02326,11.9607,6.26444,14.91252,1.216,1.3313-2.2769-.27034-4.948-1.851-6.67349a40.01506,40.01506,0,0,0-4.47712-3.73758c-1.602-1.30555-6.52929-7.0044-.77064-6.95672,2.41364,0.02,2.41591-3.73,0-3.75h0Z" transform="translate(-176.00393 -198.52254)" fill="#fff"/>
  <path d="M555.93121,205.21087c-2.79765,4.96758-6.6127,14.003-3.55872,19.58167,2.90291,5.30276,9.37906,2.894,11.7573-1.42915,1.16395-2.1158-2.07324-4.01-3.238-1.8927a4.74231,4.74231,0,0,1-2.56713,2.56414l-3.10036-3.07506c-0.51608-1.25258.34931-4.06019,0.60383-5.24879a30.36,30.36,0,0,1,3.34111-8.60741c1.18573-2.10541-2.05244-3.99783-3.238-1.8927h0Z" transform="translate(-176.00393 -198.52254)" fill="#fff"/>
  <path d="M555.33042,219.43846l5.32836-1.87479c2.26139-.79567,1.288-4.42-0.9969-3.616l-5.32836,1.87479c-2.26139.79567-1.288,4.42,0.9969,3.616h0Z" transform="translate(-176.00393 -198.52254)" fill="#fff"/>
  <path d="M556.53994,207.96107a54.96248,54.96248,0,0,1,8.41005.07569c2.40428,0.20537,2.39059-3.5458,0-3.75a54.96254,54.96254,0,0,0-8.41005-.07569c-2.39493.16216-2.41295,3.91338,0,3.75h0Z" transform="translate(-176.00393 -198.52254)" fill="#fff"/>
  <path d="M576.61787,204.37436c-4.49686-.06555-9.46367,3.99162-6.53138,8.74726,1.56174,2.53285,4.78438,3.68921,6.56442,6.08929,0.694,0.93571,1.7975,3.25573,1.00568,4.40641a6.25273,6.25273,0,0,1-2.11148.44268c-3.09988.50373-8.12375-.6214-6.35992-4.85235,0.92751-2.22484-2.69945-3.19557-3.616-.9969a7.09785,7.09785,0,0,0,2.54752,8.4057c2.98775,2.15894,8.14721,1.72573,11.379.31626,2.93133-1.27842,3.67466-4.36114,2.27006-7.13978a17.72069,17.72069,0,0,0-3.76935-4.53763c-0.8678-.82878-1.96818-1.5182-2.77029-2.39339-1.66291-1.81441-1.64908-4.78187,1.39176-4.73754,2.41395,0.03519,2.41491-3.7148,0-3.75h0Z" transform="translate(-176.00393 -198.52254)" fill="#fff"/>
  <path d="M277.26965,205.6332c-4.49686-.06555-9.46367,3.99162-6.53138,8.74726,1.56174,2.53285,4.78438,3.68921,6.56442,6.08929,0.694,0.93571,1.7975,3.25573,1.00568,4.40641a6.25273,6.25273,0,0,1-2.11148.44268c-3.09988.50373-8.12375-.6214-6.35992-4.85235,0.92751-2.22484-2.69945-3.19557-3.616-.9969a7.09785,7.09785,0,0,0,2.54752,8.4057c2.98775,2.15894,8.14721,1.72573,11.379.31626,2.93133-1.27842,3.67466-4.36114,2.27006-7.13978a17.72069,17.72069,0,0,0-3.76935-4.53763c-0.8678-.82878-1.96818-1.5182-2.77029-2.39339-1.66291-1.81441-1.64908-4.78187,1.39176-4.73754,2.41395,0.03519,2.41491-3.7148,0-3.75h0Z" transform="translate(-176.00393 -198.52254)" fill="#fff"/>
  <path d="M339.75,249.81441l0.03913,18.46868h3.75a117.96006,117.96006,0,0,1-.32965-20.34754l-3.683.49845c1.61335,3.99477,4.8744,12.76661,10.63186,12.03276,6.5175-.83073,6.76138-9.30836,6.49416-14.06235-0.13444-2.39181-3.75656-2.43276-3.75,0,0.02116,7.84994,4.09214,15.47263,2.69854,23.30809l3.427-.4479-1.06907-1.89144c-1.18749-2.10094-4.42827-.21314-3.238,1.8927L355.79,271.1573c0.744,1.31633,3.13763,1.17926,3.427-.4479,1.48977-8.37615-2.54219-15.99841-2.56459-24.305h-3.75c0.14191,2.52467.74394,10.76461-3.77248,10.13782-2.9249-.40592-5.08421-6.86849-5.9875-9.10512a1.88487,1.88487,0,0,0-3.683.49845,117.96024,117.96024,0,0,0,.32965,20.34754c0.24155,2.34885,3.75522,2.46523,3.75,0L343.5,249.81441c-0.00511-2.41271-3.75512-2.41715-3.75,0h0Z" transform="translate(-176.00393 -198.52254)" fill="#fff"/>
  <path d="M348.90256,205.75744c-3.71652-2.66626-7.549,1.18089-7.628,5.09967-0.059,2.92668,1.87792,5.40194,3.35386,7.74386,0.72405,1.14888,4.0308,5.19732,1.81976,6.62884-2.20295,1.42628-4.19379-1.52313-5.07967-3.01376-1.23189-2.07286-4.47505-.18882-3.238,1.8927,2.2507,3.78719,7.5,7.54987,11.41186,3.38635a5.987,5.987,0,0,0,.94984-6.22269,24.81385,24.81385,0,0,0-2.62576-4.56414c-0.53793-.85354-1.16968-1.69869-1.63455-2.5936a4.404,4.404,0,0,1-.86729-2.07153q-1.16508-2.07217,1.64529-3.04769c1.9641,1.40906,3.83844-1.84212,1.8927-3.238h0Z" transform="translate(-176.00393 -198.52254)" fill="#fff"/>
  <path d="M326.368,247.318c-1.9721,3.71279-2.3957,7.707-3.1208,11.7943-0.54526,3.07362-1.0477,6.53.478,9.42108,2.75176,5.21441,12.39044,3.08442,12.55247-2.75233,0.067-2.414-3.683-2.41219-3.75,0-0.019.68441-2.3597,1.88711-2.91433,1.95376a2.66654,2.66654,0,0,1-2.96649-2.03856c-0.64127-1.88364.00167-4.39595,0.34758-6.25091,0.65689-3.52264.90187-7.01576,2.61163-10.23464,1.13153-2.13028-2.10428-4.02713-3.238-1.8927h0Z" transform="translate(-176.00393 -198.52254)" fill="#fff"/>
  <path d="M325.62764,262.399l7.08887-1.0345a1.88916,1.88916,0,0,0,1.30957-2.30647,1.92138,1.92138,0,0,0-2.30647-1.30957l-7.08887,1.0345a1.88916,1.88916,0,0,0-1.30957,2.30647,1.92138,1.92138,0,0,0,2.30647,1.30957h0Z" transform="translate(-176.00393 -198.52254)" fill="#fff"/>
  <path d="M327.99447,251.57968a6.13937,6.13937,0,0,1,6.123.83032c2.00851,1.34978,3.88762-1.89737,1.8927-3.238a9.60038,9.60038,0,0,0-9.01256-1.20835,1.939,1.939,0,0,0-1.30957,2.30647,1.88564,1.88564,0,0,0,2.30647,1.30957h0Z" transform="translate(-176.00393 -198.52254)" fill="#fff"/>
  <path d="M306.48786,250.27895a166.6702,166.6702,0,0,1-.272,17.76756c-0.16544,2.40872,3.58527,2.39846,3.75,0a166.67017,166.67017,0,0,0,.272-17.76756c-0.09136-2.40553-3.84181-2.41742-3.75,0h0Z" transform="translate(-176.00393 -198.52254)" fill="#fff"/>
  <path d="M307.58512,248.94182a28.30272,28.30272,0,0,1,9.47992,9.41248c1.33864,2.1873,3.47378,5.738,1.5901,8.22381-1.30616,1.72368-9.03975,1.12608-7.51-2.21581,0.99734-2.17873-2.23372-4.08662-3.238-1.8927-3.829,8.36469,9.31017,11.45159,14.04167,6.218,3.21479-3.55595.434-8.84378-1.64578-12.226a32.50122,32.50122,0,0,0-10.82524-10.7578c-2.06408-1.263-3.9502,1.979-1.8927,3.238h0Z" transform="translate(-176.00393 -198.52254)" fill="#fff"/>
  <path d="M454.41723,211.81646q0.95786,8.17532,1.12408,16.39817c0.04958,2.40979,3.79975,2.41807,3.75,0q-0.16932-8.22943-1.12408-16.39817c-0.27747-2.36826-4.03076-2.39627-3.75,0h0Z" transform="translate(-176.00393 -198.52254)" fill="#fff"/>
  <path d="M454.627,207.00007l1.1699,0.73838a1.892,1.892,0,0,0,2.56536-.67266,1.91479,1.91479,0,0,0-.67266-2.56536l-1.1699-.73838a1.892,1.892,0,0,0-2.56536.67266,1.91479,1.91479,0,0,0,.67266,2.56536h0Z" transform="translate(-176.00393 -198.52254)" fill="#fff"/>
  <path d="M462.84433,208.85289l-2.88978,18.82067c-0.36056,2.34829,3.2071,3.389,3.616.9969a110.239,110.239,0,0,1,5.9925-21.72764l-3.427.4479c3.1679,5.533,6.845,14.06956,6.62893,20.62952-0.07952,2.41375,3.67058,2.41089,3.75,0,0.24259-7.36368-3.54094-16.23453-7.14091-22.52221a1.90021,1.90021,0,0,0-3.427.4479,110.23925,110.23925,0,0,0-5.9925,21.72764l3.616,0.9969,2.88978-18.82067c0.3625-2.36087-3.25037-3.37848-3.616-.9969h0Z" transform="translate(-176.00393 -198.52254)" fill="#fff"/>
  <path d="M462.22857,220.27631a53.4178,53.4178,0,0,0,11.02578-1.0709c2.36388-.47631,1.36335-4.09163-0.9969-3.616a48.4604,48.4604,0,0,1-10.02888.93694c-2.41364-.01983-2.41592,3.73015,0,3.75h0Z" transform="translate(-176.00393 -198.52254)" fill="#fff"/>
  <path d="M495.63835,208.07918q0.142,8.823-.21465,17.63732c-0.09774,2.4132,3.65244,2.40877,3.75,0q0.35709-8.81692.21465-17.63732c-0.0388-2.41065-3.78892-2.418-3.75,0h0Z" transform="translate(-176.00393 -198.52254)" fill="#fff"/>
  <path d="M489.6139,209.20539q8.37041-.921,16.78258-1.17833c2.40751-.07371,2.41787-3.824,0-3.75q-8.417.25769-16.78258,1.17833c-2.37278.26107-2.39938,4.014,0,3.75h0Z" transform="translate(-176.00393 -198.52254)" fill="#fff"/>
  <path d="M194.51923,211.61221l0.17991,14.77645h3.75c-0.25316-5.97637-.00582-11.96123-0.259-17.9376l-3.683.49845c1.13008,4.60464,2.29842,19.07251,8.91625,19.60521,7.57083,0.6094,3.30837-18.2073,2.1964-21.76869-0.71689-2.296-4.33818-1.31593-3.616.9969a38.3663,38.3663,0,0,1,1.81893,10.42582c0.04263,1.54609.26079,3.64429-.241,5.13284a1.467,1.467,0,0,0-.01457,1.25093,7.97986,7.97986,0,0,1-1.255-1.76042c-2.55208-4.37038-3.00211-10.04379-4.1889-14.8795-0.4986-2.03162-3.77331-1.633-3.683.49845,0.25316,5.97637.00582,11.96123,0.259,17.9376,0.10166,2.4,3.77954,2.4258,3.75,0l-0.17991-14.77645c-0.02936-2.41132-3.77944-2.41785-3.75,0h0Z" transform="translate(-176.00393 -198.52254)" fill="#fff"/>
  <path d="M287.14768,207.18285l-3.77412,19.06527,3.616,0.9969c0.452-2.8324.95256-5.65541,1.536-8.46394,0.18861-.9079,1.12131-7.86381,2.20341-8.03659l-1.82427-.4822c2.273,1.81039,3.2335,4.765,3.98391,7.47028,0.28548,1.02914.92,7.36665,2.21488,7.53092l1.619,0.92865-0.277-.4949c-1.17893-2.106-4.41928-.21752-3.238,1.8927,1.60565,2.86834,4.85255,1.08989,4.98192-1.73226,0.21057-4.59328-1.68946-10.703-3.83918-14.70745-1.38439-2.57882-4.46-6.12143-6.94422-2.49667-1.44562,2.10935-1.67771,5.325-2.1994,7.73316-0.70824,3.26922-1.30591,6.55834-1.83307,9.86139-0.37316,2.33811,3.14165,3.39335,3.616.9969l3.77412-19.06527c0.4666-2.357-3.14708-3.36592-3.616-.9969h0Z" transform="translate(-176.00393 -198.52254)" fill="#fff"/>
  <path d="M286.58653,221.67556a24.02448,24.02448,0,0,1,8.25242-2.26143c2.38644-.20482,2.40816-3.95669,0-3.75a29.237,29.237,0,0,0-10.14511,2.77341c-2.17951,1.03294-.27861,4.26707,1.8927,3.238h0Z" transform="translate(-176.00393 -198.52254)" fill="#fff"/>
  <path d="M363.74912,250.93736l0.28083,15.59989c0.04383,2.43458,3.58319,2.38943,3.75,0l0.07935-1.13656c0.16814-2.40847-3.58259-2.398-3.75,0l-0.07935,1.13656h3.75l-0.28083-15.59989c-0.04339-2.41029-3.79353-2.418-3.75,0h0Z" transform="translate(-176.00393 -198.52254)" fill="#fff"/>
  <path d="M364.35394,250.206c3.8484,0.418,6.85282,3.1934,8.62769,6.49494a15.05086,15.05086,0,0,1,1.68247,4.97106c0.48041,3.61432-3.01439,5.93826-5.93481,3.53937-1.85056-1.52008-4.51852,1.11817-2.65165,2.65165,5.27,4.32888,13.131,1.3023,12.36078-6.02969-0.79436-7.56134-6.32114-14.534-14.08447-15.37733-2.396-.26027-2.37755,3.49173,0,3.75h0Z" transform="translate(-176.00393 -198.52254)" fill="#fff"/>
  <path d="M209.15918,209.65625L209.44,225.25613c0.04383,2.43458,3.58319,2.38943,3.75,0l0.07935-1.13656c0.16814-2.40847-3.58259-2.398-3.75,0L209.44,225.25613h3.75l-0.28083-15.59989c-0.04339-2.41029-3.79353-2.418-3.75,0h0Z" transform="translate(-176.00393 -198.52254)" fill="#fff"/>
  <path d="M209.764,208.92493c3.8484,0.418,6.85282,3.1934,8.62769,6.49494a15.05086,15.05086,0,0,1,1.68247,4.97106c0.48041,3.61432-3.01439,5.93826-5.93481,3.53937-1.85056-1.52008-4.51852,1.11817-2.65165,2.65165,5.27,4.32888,13.131,1.3023,12.36078-6.02969-0.79436-7.56134-6.32114-14.534-14.08447-15.37733-2.396-.26027-2.37755,3.49173,0,3.75h0Z" transform="translate(-176.00393 -198.52254)" fill="#fff"/>
  <path d="M537.508,207.65956q0.16573,9.17377.11325,18.35072c-0.01166,2.41339,3.73832,2.41638,3.75,0q0.04434-9.17511-.11325-18.35072c-0.04354-2.41028-3.79368-2.418-3.75,0h0Z" transform="translate(-176.00393 -198.52254)" fill="#fff"/>
  <path d="M537.83542,208.58675q2.6-2.51962,4.19692,2.03035a9.312,9.312,0,0,1-2.84277,1.57437c-2.17145.89205-1.41426,4.21815,0.9969,3.616,2.85118-.712,5.86844.34483,6.73749,3.46088,0.448,1.60616.15589,4.77047-1.79374,5.36-2.30386.6967-1.322,4.31731,0.9969,3.616,4.21083-1.27337,5.52265-6.67151,4.21909-10.51152-1.61185-4.74816-6.51681-6.70014-11.15664-5.5415l0.9969,3.616c3.31561-1.36208,7.71534-4.09989,5.99049-8.427-1.65187-4.144-7.0967-4.27028-10.23423-2.03179-1.948,1.38979-.07732,4.64353,1.8927,3.238h0Z" transform="translate(-176.00393 -198.52254)" fill="#fff"/>
  <path d="M391.59288,222.2871a18.182,18.182,0,0,1-7.26718,3.633,17.165,17.165,0,0,1-4.05039.42113c-1.77732-.01689-4.01154-0.73254-3.00795-3.18455,0.56152-1.37193,3.29283-2.89179,4.39435-3.9001a26.27376,26.27376,0,0,0,3.31019-3.49062c4.0502-5.36953,3.18974-11.37946-3.57677-13.55344-6.94066-2.22993-7.82191,4.64034-6.86825,10.24951,1.46272,8.60339,8.11466,14.80332,12.77736,21.76319,1.33652,1.995,4.58629.11983,3.238-1.8927-4.49749-6.71327-11.81566-13.22575-12.51307-21.74286-0.21512-2.62713.19564-7.00916,3.99253-4.124,3.49883,2.65869.96364,5.99466-.92628,8.11133-2.27247,2.54512-5.48972,4.31446-7.49636,7.08433-2.934,4.05-.543,7.37053,3.89631,8.16635,6.105,1.09444,12.04011-1.09784,16.74915-4.88891,1.87995-1.51348-.7881-4.15192-2.65165-2.65165h0Z" transform="translate(-176.00393 -198.52254)" fill="#fff"/>
  <path d="M382.60416,267.57131c0.25364,0.52708-1.3647,2.5629-1.76807,3.06457a1.93209,1.93209,0,0,0,0,2.65165,1.88851,1.88851,0,0,0,2.65165,0c1.70395-2.11915,3.69136-4.83074,2.35444-7.60892a1.89225,1.89225,0,0,0-2.56536-.67266,1.91517,1.91517,0,0,0-.67266,2.56536h0Z" transform="translate(-176.00393 -198.52254)" fill="#fff"/>
  <path d="M399.427,253.6252c0.56731-2.7674,4.48468-4.3409,6.328-1.51058a6.73123,6.73123,0,0,1,.68118,3.46447c0.01907,2.923-.76631,7.83822-4.56365,7.92228l1.808,2.37345c0.55167-2.83821,9.27042,3.2276,10.31,4.00519,1.93332,1.44609,3.80471-1.80786,1.8927-3.238-3.25777-2.43676-14.274-9.71122-15.81874-1.76407a1.9001,1.9001,0,0,0,1.808,2.37345c7.33272-.16233,9.93063-10.04408,7.62225-15.912a7.1139,7.1139,0,0,0-13.68387,1.2889c-0.4829,2.35563,3.131,3.36314,3.616.9969h0Z" transform="translate(-176.00393 -198.52254)" fill="#fff"/>
  <path d="M421.17352,246.30212a8.27237,8.27237,0,0,0-6.32431,8.11006c-0.07724,3.56346,2.177,10.14649,5.75721,11.73711,4.11342,1.82753,6.17522-3.52477,6.98454-6.52316,1.13332-4.19873.53616-8.82235-3.00628-11.6807-1.86141-1.50194-4.53087,1.13534-2.65165,2.65165a6.42139,6.42139,0,0,1,2.39957,5.91166c-0.11445,1.56668-.84527,7.12764-3.13038,5.10647-3.10777-2.74881-4.08-10.65608.9682-11.69706,2.362-.48705,1.36235-4.10254-0.9969-3.616h0Z" transform="translate(-176.00393 -198.52254)" fill="#fff"/>
  <path d="M429.96345,248.88677c3.63456-2.3273,6.12876,4.07341,5.90458,6.25893-0.24787,2.41643-1.41724,6.24869-3.58721,7.50493l2.75437,2.11746c-0.2581.91011,2.1208,0.835,3.13264,1.094a25.10641,25.10641,0,0,1,4.49865,1.68432c2.17026,1.02476,4.0759-2.20715,1.8927-3.238-2.87686-1.3584-11.71867-5.54925-13.14-.53717a1.89575,1.89575,0,0,0,2.75437,2.11746c4.27456-2.47462,6.73631-10.13007,5.0235-14.725-1.612-4.32457-6.64906-8.38173-11.12627-5.51485-2.02617,1.29741-.14769,4.54453,1.8927,3.238h0Z" transform="translate(-176.00393 -198.52254)" fill="#fff"/>
  <path d="M447.52433,254.77015a51.53136,51.53136,0,0,0,4.76438-8.11056l-3.494-.94635,1.721,21.15429c0.19433,2.38868,3.946,2.40948,3.75,0l-1.721-21.15429c-0.13579-1.66913-2.62782-2.78342-3.494-.94635a51.53137,51.53137,0,0,1-4.76438,8.11056c-1.40782,1.96509,1.84327,3.83953,3.238,1.8927h0Z" transform="translate(-176.00393 -198.52254)" fill="#fff"/>
  <path d="M517.84545,215.65282c-1.259-2.74437-6.16021-10.80948-10.20835-8.06527-2.1339,1.44656-2.41189,5.61091-2.75563,7.879a16.90966,16.90966,0,0,0,.21586,7.91048c1.41092,4.15966,6.24172,5.91135,9.42493,2.39117,3.93253-4.34881,2.06038-11.39351.55237-16.287-0.70856-2.29932-4.32957-1.3185-3.616.9969,0.88581,2.87449,1.8362,5.88328,1.58582,8.93022-0.10349,1.25937-.63411,4.22367-2.24464,4.49814-1.05884.18045-1.924-1.13786-2.22483-1.9287a7.67338,7.67338,0,0,1-.29688-2.63325,24.66937,24.66937,0,0,1,.49936-4.51678c0.0921-.49412.65013-3.72726,0.76216-3.77041,1.29023-.49695,4.487,5.22214,5.06785,6.48823,1.00509,2.19082,4.23826.28756,3.238-1.8927h0Z" transform="translate(-176.00393 -198.52254)" fill="#fff"/>
  <path d="M435.11109,216.9197c0.46158-4.53154-2.62029-10.94656-8.10351-8.80493-5.2893,2.06588-6.28005,10.094-4.627,14.79341,1.998,5.68,8.66475,5.2187,13.03258,2.47625,5.4988-3.45256,3.58073-10.0677.36772-14.39087-1.42341-1.91523-4.67993-.04743-3.238,1.8927,1.69943,2.28661,4.18029,5.97076,1.74272,8.64506-1.80977,1.98553-6.67375,3.30361-8.20311.515-1.29432-2.36-.78064-6.401.48523-8.65136,0.93986-1.67082,2.78967-2.76518,4.10088-.72879a6.44071,6.44071,0,0,1,.69253,4.25353c-0.24433,2.39865,3.50741,2.3816,3.75,0h0Z" transform="translate(-176.00393 -198.52254)" fill="#fff"/>
  <path d="M318.67769,210.51072a145.201,145.201,0,0,1,.02587,14.88352c-0.176,2.40768,3.5748,2.39651,3.75,0a145.21267,145.21267,0,0,0-.02587-14.88352c-0.07085-2.4078-3.82115-2.41792-3.75,0h0Z" transform="translate(-176.00393 -198.52254)" fill="#fff"/>
  <path d="M314.4582,210.58708a56.12536,56.12536,0,0,0,14.4901-2.30473l-0.9969-3.616-1.00395.38178c-2.23372.84944-1.26486,4.47615,0.9969,3.616l1.00395-.38178c2.21018-.84049,1.36181-4.31535-0.9969-3.616a52.14393,52.14393,0,0,1-13.4932,2.17077c-2.4083.06584-2.418,3.8161,0,3.75h0Z" transform="translate(-176.00393 -198.52254)" fill="#fff"/>
  <path d="M338.9505,215.16815c-0.37395-3.48656-3.37664-10.70979-8.06993-8.04448-4.5776,2.59961-3.69,11.72782-2.12,15.74622,1.31716,3.3713,5.76357,5.25266,8.29305,1.941,3.43-4.4906,3.6142-10.77382,1.41587-15.77165-0.9695-2.20413-4.20155-.29785-3.238,1.8927a11.57953,11.57953,0,0,1,.46289,8.10242c-0.35586,1.16833-1.47544,5.15853-3.20085,3.10595-1.43413-1.70608-1.27362-5.64722-1.04212-7.68428,0.05915-.52052.36793-3.92154,1.70878-3.77231,1.21105,0.13478,1.95489,3.68791,2.04032,4.48443,0.25467,2.37448,4.00747,2.40052,3.75,0h0Z" transform="translate(-176.00393 -198.52254)" fill="#fff"/>
  <path d="M299.68323,207.865l1.29175,18.8727,2.82135-1.619-0.74788-.74793c-1.43488-1.90346-4.69239-.03663-3.238,1.8927a8.80879,8.80879,0,0,0,2.0932,2.09325,1.88485,1.88485,0,0,0,2.82135-1.619l-1.29175-18.8727c-0.1639-2.39461-3.91514-2.41278-3.75,0h0Z" transform="translate(-176.00393 -198.52254)" fill="#fff"/>
  <path d="M298.34049,208.22051a59.64787,59.64787,0,0,0,4.35023,11.75408c1.39272,2.58275,4.01591,7.18723,7.56734,6.62292,3.22271-.51208,3.93807-4.62775,4.33-7.26783a24.52937,24.52937,0,0,0-1.46166-12.51265c-0.85085-2.20174-4.28529-1.37714-3.616.9969a10.65272,10.65272,0,0,0,1.56573,3.3854c1.36587,1.96978,4.61776.0971,3.238-1.8927a5.31787,5.31787,0,0,1-1.18769-2.4896l-3.616.9969a21.72242,21.72242,0,0,1,1.59395,8.08009c-0.00962,1.9042-.43162,9.03489-3.49209,4.89343-2.93535-3.97214-4.29375-8.89092-5.65564-13.56383-0.67388-2.31221-4.29376-1.32846-3.616.9969h0Z" transform="translate(-176.00393 -198.52254)" fill="#fff"/>
  <path d="M450.6848,207.07805c-3.32222.05129-6.60372-.66341-7.41749,3.21716-1.22573,5.84507-.94993,12.41528-0.76658,18.34742l3.20083-1.32583-0.69767-.69616a1.87607,1.87607,0,0,0-2.65165,2.65165l0.69767,0.69616a1.8953,1.8953,0,0,0,3.20083-1.32583c-0.11688-3.78163-.09644-7.5576.13035-11.33513,0.09041-1.50589-.15279-3.88143.43409-5.265q-0.93822-1.812,1.14151-1.17236l2.72811-.04212c2.41077-.03722,2.418-3.78733,0-3.75h0Z" transform="translate(-176.00393 -198.52254)" fill="#fff"/>
  <path d="M442.91659,221.90427l8.61374-.53965c2.397-.15017,2.414-3.90124,0-3.75l-8.61374.53965c-2.397.15017-2.414,3.90124,0,3.75h0Z" transform="translate(-176.00393 -198.52254)" fill="#fff"/>
  <path d="M243.59358,209.28917c-2.70543,4.06872-5.89219,11.70434-3.40305,16.56594,2.36186,4.613,9.30582,1.10923,11.80079-1.50592,1.66587-1.74612-.98172-4.402-2.65165-2.65165a7.90345,7.90345,0,0,1-3.74405,2.32367c-2.477.65013-2.35993-1.12005-2.22982-3.13042a19.65615,19.65615,0,0,1,3.4658-9.70892c1.34-2.01529-1.9065-3.89518-3.238-1.8927h0Z" transform="translate(-176.00393 -198.52254)" fill="#fff"/>
  <path d="M240.69943,218.35375a11.37746,11.37746,0,0,0,10.45316-.80046c2.03047-1.29176.15151-4.53852-1.8927-3.238a7.91431,7.91431,0,0,1-7.56356.42243c-2.22285-.93132-3.19327,2.69582-0.9969,3.616h0Z" transform="translate(-176.00393 -198.52254)" fill="#fff"/>
  <path d="M244.42606,210.65012a15.07168,15.07168,0,0,1,6.24562-.80118c2.40676,0.18457,2.39486-3.56634,0-3.75a17.83791,17.83791,0,0,0-7.24251.93514c-2.26483.78849-1.2908,4.4125,0.9969,3.616h0Z" transform="translate(-176.00393 -198.52254)" fill="#fff"/>
  <path d="M182.09366,208.51569a147.28339,147.28339,0,0,0-6.02888,17.74873l3.616,0.9969c0.63681-2.63654,1.34136-5.25156,2.16767-7.83572,0.70285-2.19806,1.52117-6.79348,3.1165-8.40642q0.12878-1.39642,1.27817-.48688,0.30562,0.895.56143,1.80516c0.3668,1.25623.68031,2.52444,0.95412,3.804a59.28161,59.28161,0,0,1,1.19541,9.20935c0.13078,2.40016,3.88161,2.41546,3.75,0a62.65373,62.65373,0,0,0-2.10475-13.39636c-0.68363-2.45439-1.409-6.5155-4.67611-6.49918-3.12886.01563-4.23028,3.6507-5.17366,5.99522a106.72644,106.72644,0,0,0-4.68483,14.81389c-0.56586,2.34276,2.98426,3.33282,3.616.9969a147.28357,147.28357,0,0,1,6.02888-17.74873c0.91956-2.22892-2.707-3.20031-3.616-.9969h0Z" transform="translate(-176.00393 -198.52254)" fill="#fff"/>
  <path d="M181.292,221.19963l8.87449-.34149c2.40538-.09256,2.41738-3.843,0-3.75l-8.87449.34149c-2.40538.09256-2.41738,3.843,0,3.75h0Z" transform="translate(-176.00393 -198.52254)" fill="#fff"/>
  <path d="M521.46169,211.63919q-0.17109,6.93008-.724,13.8364l3.683-.49845a25.26533,25.26533,0,0,1-1.23558-8.9381c0.0821-1.36254.15632-3.26215,1.148-4.35551q0.57863-2.18256,2.52415-.107a3.81083,3.81083,0,0,1-2.10475,1.085c-2.07359.40881-1.604,3.76791,0.49845,3.683a4.75863,4.75863,0,0,1,4.42132,1.75342c0.96974,1.276,2.06709,4.6853.33255,5.9256-1.94621,1.39166-.07572,4.64556,1.8927,3.238,3.07883-2.20156,3.28554-6.18026,1.87231-9.50844a8.38127,8.38127,0,0,0-8.51887-5.1586l0.49845,3.683c2.5005-.493,5.23884-2.59037,5.45953-5.27008,0.24547-2.98056-1.91737-5.50387-4.98275-5.12186-8.7934,1.09585-7.15378,14.41139-5.42155,20.08835a1.88433,1.88433,0,0,0,3.683-.49845q0.55316-6.91009.724-13.8364c0.0596-2.414-3.69043-2.4129-3.75,0h0Z" transform="translate(-176.00393 -198.52254)" fill="#fff"/>
  <path d="M249.26607,203.59849a15.261,15.261,0,0,0,2.74074-1.56432,1.9181,1.9181,0,0,0,.67266-2.56536,1.89687,1.89687,0,0,0-2.56536-.67266,15.261,15.261,0,0,1-2.74074,1.56432,1.88084,1.88084,0,0,0-.67266,2.56536,1.9319,1.9319,0,0,0,2.56536.67266h0Z" transform="translate(-176.00393 -198.52254)" fill="#fff"/>
  <path d="M225.42619,211.79529l-0.55946,14.81481,3.683-.49845a29.05276,29.05276,0,0,1,.88521-13.0322c3.25031-10.52343,2.7833,2.88362-.85147,2.56367l0.94635,3.494c1.685-1.1183,4.8943.17538,5.332,2.06094,0.28387,1.22294-.41285,3.24729-0.59114,4.44862-0.35036,2.36074,3.26246,3.37937,3.616.9969,0.43988-2.96392,1.58876-6.29294-.5522-8.83837-2.37623-2.82513-6.56524-3.98487-9.69739-1.90611a1.89221,1.89221,0,0,0,.94635,3.494c6.74718,0.59392,10.054-13.61263,3.62172-14.87094-3.45377-.67564-5.05588,3.75258-5.93953,6.21616a33.24334,33.24334,0,0,0-1.332,16.37022c0.33082,2.16415,3.60672,1.522,3.683-.49845l0.55946-14.81481c0.09114-2.41343-3.659-2.40957-3.75,0h0Z" transform="translate(-176.00393 -198.52254)" fill="#fff"/>
</svg>
