<svg xmlns="http://www.w3.org/2000/svg" width="33.52514mm" height="8.68524mm" viewBox="0 0 95.03189 24.61959">
  <title>disegno</title>
  <path d="M138.36392,373.66488l-0.35558,15.10336c-0.04849,2.05963,3.33292,2.622,3.683.49845l0.23039-1.39746c0.3892-2.36075-3.2238-3.37611-3.616-.9969l-0.23039,1.39746,3.683,0.49845,0.35558-15.10336c0.05683-2.41406-3.69319-2.41315-3.75,0h0Z" transform="translate(-119.33928 -366.38184)" fill="#fff"/>
  <path d="M140.23892,370.33982a1.87612,1.87612,0,0,0,0-3.75,1.87612,1.87612,0,0,0,0,3.75h0Z" transform="translate(-119.33928 -366.38184)" fill="#fff"/>
  <path d="M211.15421,368.96367c-5.16385-1.02738-7.50487,3.42862-8.69724,7.7371-1.01319,3.661-2.22544,9.44847,1.58959,11.97646,3.79341,2.51367,7.92518-.75307,9.37384-4.28931a13.78768,13.78768,0,0,0-2.05094-13.54739c-1.45434-1.88272-4.71362-.01755-3.238,1.8927a10.90575,10.90575,0,0,1,2.49136,6.18764c0.10152,2.10839-.44833,5.72884-2.79,6.43547-3.37,1.017-2.65482-3.45894-2.281-5.43122,0.37533-1.98,1.43749-7.97568,4.60542-7.3454,2.35686,0.46891,3.36554-3.14479.9969-3.616h0Z" transform="translate(-119.33928 -366.38184)" fill="#fff"/>
  <path d="M159.39482,371.61675c-0.72718,3.14918-1.33,6.318-1.77843,9.51925-0.29052,2.07409-.74021,4.41691.44981,6.29633,2.54991,4.02713,8.22077,2.37318,11.18159-.0749,1.86144-1.53909-.80438-4.179-2.65165-2.65165-1.42488,1.17813-4.66577,2.63458-5.57137-.07405-0.29417-.87986.28-3.02853,0.38112-3.704,0.41846-2.79391.96946-5.56187,1.605-8.31411,0.54232-2.34859-3.07243-3.35113-3.616-.9969h0Z" transform="translate(-119.33928 -366.38184)" fill="#fff"/>
  <path d="M158.85947,382.23375c2.79726-.88089,7.95256,1.09156,9.46517-2.44784,0.93792-2.19467-2.2915-4.10748-3.238-1.8927-0.16586.38811-.129,0.29988-0.70789,0.30882-0.56163.00867-1.12294-.01131-1.68445-0.00009a16.895,16.895,0,0,0-4.83172.41576c-2.29384.72236-1.31421,4.34384,0.9969,3.616h0Z" transform="translate(-119.33928 -366.38184)" fill="#fff"/>
  <path d="M161.23984,372.17645a11.78975,11.78975,0,0,1,5.4658-.52063,1.88426,1.88426,0,0,0,1.875-1.875,1.92306,1.92306,0,0,0-1.875-1.875,14.29856,14.29856,0,0,0-6.4627.65458c-2.27422.76823-1.29847,4.39143,0.9969,3.616h0Z" transform="translate(-119.33928 -366.38184)" fill="#fff"/>
  <path d="M123.2883,372.791c4.71635-1.75574,8.99823,2.18467,9.14471,6.94087,0.1505,4.887-6.41347,8.14028-10.73819,7.53934-2.36016-.328-3.38068,3.28481-0.9969,3.616,6.34811,0.8821,15.89933-3.40552,15.524-10.90939-0.35389-7.07506-6.57771-13.54012-13.93051-10.80291-2.24174.83453-1.27161,4.46054,0.9969,3.616h0Z" transform="translate(-119.33928 -366.38184)" fill="#fff"/>
  <path d="M121.00507,371.651c-0.745,5.84934.7047,11.5084,1.31109,17.299,0.24881,2.376,4.00149,2.40153,3.75,0-0.60527-5.77992-2.05448-11.46214-1.31109-17.299,0.30407-2.38746-3.44876-2.36529-3.75,0h0Z" transform="translate(-119.33928 -366.38184)" fill="#fff"/>
  <path d="M151.69832,368.17538c-3.95782-.04878-7.531,3.54982-5.84509,7.64845,0.92773,2.25535,3.47045,3.69644,5.009,5.512,0.91377,1.07823,1.54477,1.6628,1.48635,3.14188-0.06978,1.76676.004,1.07662-1.28015,1.5481-2.89871,1.06427-6.1169-.8894-4.94225-4.09351,0.83194-2.26928-2.79083-3.24785-3.616-.9969-2.698,7.35936,5.74757,10.80152,11.50758,8.11047,2.519-1.17687,3.16353-3.78214,2.23781-6.30568a14.80136,14.80136,0,0,0-3.15415-4.53c-1.0235-1.13227-7.13989-6.3555-1.4031-6.28479,2.41386,0.02975,2.41529-3.72023,0-3.75h0Z" transform="translate(-119.33928 -366.38184)" fill="#fff"/>
  <path d="M183.30206,368.75855c-5.30632-.918-9.39059,2.44641-11.492,7.12409-1.77766,3.957-3.12707,9.775,1.07655,12.71414,3.508,2.45276,8.91291,1.8174,10.58953-2.49874,1.68721-4.34342-1.9943-7.23727-6.06354-6.6454-2.08333.303-1.60008,3.81474,0.49845,3.683a11.64039,11.64039,0,0,0,7.39-3.13194c1.80942-1.60429-.85069-4.24844-2.65165-2.65165a7.327,7.327,0,0,1-4.73831,2.03359l0.49845,3.683q2.98909,1.93032.00839,3.14492a4.41141,4.41141,0,0,1-3.2843-.59737c-1.8865-1.36913-1.34874-3.73882-.86186-5.598,0.94421-3.60544,3.58057-8.41406,8.03345-7.64369,2.3603,0.40835,3.37405-3.20478.9969-3.616h0Z" transform="translate(-119.33928 -366.38184)" fill="#fff"/>
  <path d="M187.38559,370.63467l4.87086,10.16307a27.58134,27.58134,0,0,1,2.24413,5.8673,5.23823,5.23823,0,0,0,.87282,2.4401,1.90489,1.90489,0,0,0,2.94483.37948,10.086,10.086,0,0,0,2.80153-7.09817c0.21411-4.62054.20674-9.06982,1.08-13.6548,0.44916-2.35832-3.16433-3.36865-3.616-.9969a64.55127,64.55127,0,0,0-1.16753,9.50626c-0.128,3.20838.69918,7.09178-1.74959,9.592l2.94483,0.37948c-0.55423-.75113-0.62841-2.77285-0.93612-3.65675a46.54714,46.54714,0,0,0-2.18083-4.65066L190.62361,368.742c-1.0426-2.17539-4.27708-.27531-3.238,1.8927h0Z" transform="translate(-119.33928 -366.38184)" fill="#fff"/>
  <path d="M191.25742,388.14157q0.19639-9.66634.25583-19.3343c0.01484-2.41349-3.73515-2.41621-3.75,0q-0.05944,9.66815-.25583,19.3343c-0.049,2.41406,3.701,2.41383,3.75,0h0Z" transform="translate(-119.33928 -366.38184)" fill="#fff"/>
</svg>
