<svg xmlns="http://www.w3.org/2000/svg" width="104.73736" height="22.85602" viewBox="0 0 104.73736 22.85602">
  <title>erro</title>
  <path d="M986.68872,571.35233c-0.06212,4.99762-.14435,9.995-0.20648,14.99259l3.683-.49845-0.13194-.32032a1.8999,1.8999,0,0,0-2.30647-1.30957l-0.26388.10936,2.30647,1.30957-0.13194-.32032c-0.90641-2.20054-4.536-1.2365-3.616.9969l0.13194,0.32032a1.8999,1.8999,0,0,0,2.30647,1.30957l0.26388-.10936-2.30647-1.30957,0.13194,0.32032c0.76125,1.84812,3.65477,1.77429,3.683-.49845,0.06212-4.99762.14435-9.995,0.20648-14.99259,0.03-2.41387-3.72-2.41527-3.75,0h0Z" transform="translate(-953.29272 -566.26001)" fill="#1d1d1b"/>
  <path d="M987.22,571.67483c2.03938-.92089,7.1036-2.16952,4.8374,2.018-0.85724,1.584-2.81552,2.59425-4.38054,3.29718-2.11876.95164-.45053,3.69335,1.4448,3.427,2.41734-.33968,5.35862-0.77216,7.205,1.17734a7.94223,7.94223,0,0,1,1.88165,4.57226c0.23146,2.38033,3.98379,2.40436,3.75,0a11.76991,11.76991,0,0,0-3.72223-7.97363c-2.82591-2.36483-6.72528-1.8678-10.11132-1.392l1.4448,3.427c3.41449-1.53361,8.54723-5.63877,6.85419-9.96986-1.889-4.83228-7.51594-3.43818-11.09645-1.82138-2.196.99162-.29161,4.22435,1.8927,3.238h0Z" transform="translate(-953.29272 -566.26001)" fill="#1d1d1b"/>
  <path d="M1016.46852,580.24157c5.86685-1.71085-1.00868-10.07334-3.64226-11.63664-6.29219-3.735-9.57473,3.37841-10.14369,8.59826-0.55607,5.10162.84592,13.002,7.70613,11.78774,7.65652-1.35519,6.7588-10.53788,6.651-16.25825-0.04543-2.41013-3.79558-2.41805-3.75,0,0.05209,2.76335.57426,5.72225-.0765,8.4509-0.91691,3.84464-5.44642,6.34844-6.66788,1.04377-0.61568-2.67385-.39718-6.77938,1.03157-9.15808,1.08724-1.81013,3.16433-1.58285,4.62182-.284,0.46672,0.41592,2.6246,4.02931,3.27293,3.84025-2.31208.67423-1.32836,4.29412,0.9969,3.616h0Z" transform="translate(-953.29272 -566.26001)" fill="#1d1d1b"/>
  <path d="M957.59483,570.19865c-2.70543,4.06872-5.89219,11.70434-3.40305,16.56594,2.36186,4.613,9.30582,1.10923,11.80079-1.50592,1.66587-1.74612-.98172-4.402-2.65165-2.65165a7.90345,7.90345,0,0,1-3.74405,2.32367c-2.477.65013-2.35993-1.12005-2.22982-3.13042a19.65615,19.65615,0,0,1,3.4658-9.70892c1.34-2.01529-1.9065-3.89518-3.238-1.8927h0Z" transform="translate(-953.29272 -566.26001)" fill="#1d1d1b"/>
  <path d="M954.70069,579.26323a11.37746,11.37746,0,0,0,10.45316-.80046c2.03047-1.29176.15151-4.53852-1.8927-3.238a7.91431,7.91431,0,0,1-7.56356.42243c-2.22285-.93132-3.19327,2.69582-0.9969,3.616h0Z" transform="translate(-953.29272 -566.26001)" fill="#1d1d1b"/>
  <path d="M958.42731,571.5596a15.07168,15.07168,0,0,1,6.24562-.80118c2.40676,0.18457,2.39486-3.56634,0-3.75a17.83791,17.83791,0,0,0-7.24251.93514c-2.26483.78849-1.2908,4.4125,0.9969,3.616h0Z" transform="translate(-953.29272 -566.26001)" fill="#1d1d1b"/>
  <path d="M969.56745,571.47427c0.08983,4.78355.13657,9.56631,0.11325,14.35072-0.01177,2.4134,3.73822,2.41638,3.75,0,0.02333-4.7844-.02342-9.56717-0.11325-14.35072-0.04526-2.41014-3.79541-2.418-3.75,0h0Z" transform="translate(-953.29272 -566.26001)" fill="#1d1d1b"/>
  <path d="M970.27433,572.10828c1.85646-1.4795,6.45589-3.58358,7.161-.26058,0.93459,4.40436-3.47332,3.448-6.18635,4.15847l0.9969,3.616a12.13852,12.13852,0,0,1,5.34763-.754c3.10871,0.48533,3.41623,3.76037,2.59844,6.3-0.74143,2.30251,2.87812,3.28853,3.616.9969,1.08293-3.363.65026-7.74777-2.49086-9.93594-2.8245-1.96761-7.02481-1.18021-10.06816-.223a1.87662,1.87662,0,0,0,.9969,3.616c3.12886-.81938,5.51368.13885,7.68409-2.77489,1.88181-2.52629,1.75154-4.60254.6205-7.38136-2.231-5.48122-9.33681-2.87116-12.92781-.00935-1.88678,1.50365.78213,4.14155,2.65165,2.65165h0Z" transform="translate(-953.29272 -566.26001)" fill="#1d1d1b"/>
  <path d="M1034.754,572.96444l0.902,1.47675a1.8753,1.8753,0,1,0,3.238-1.8927l-0.902-1.47675a1.8753,1.8753,0,1,0-3.238,1.8927h0Z" transform="translate(-953.29272 -566.26001)" fill="#1d1d1b"/>
  <path d="M1043.58736,572.96444l0.902,1.47675a1.8753,1.8753,0,1,0,3.238-1.8927l-0.902-1.47675a1.8753,1.8753,0,1,0-3.238,1.8927h0Z" transform="translate(-953.29272 -566.26001)" fill="#1d1d1b"/>
  <path d="M1036.083,585.73746c-0.57678-2.81769,7.67042-4.64451,9.51278-4.75284a15.96877,15.96877,0,0,1,9.666,2.76278c2.045,1.29474,3.92853-1.94907,1.8927-3.238a19.37976,19.37976,0,0,0-16.19221-2.46493c-3.84875,1.196-9.46507,3.95235-8.49529,8.6899,0.48362,2.3626,4.09905,1.36268,3.616-.9969h0Z" transform="translate(-953.29272 -566.26001)" fill="#1d1d1b"/>
</svg>
