<svg xmlns="http://www.w3.org/2000/svg" width="80.14646mm" height="9.69494mm" viewBox="0 0 227.18682 27.48171">
  <title>scanning</title>
  <path d="M142.92625,449.56034c-15.029-1.25677-13.08928,28.04.95348,21.9955,2.2104-.95143.30259-4.18294-1.8927-3.238-6.7805,2.91856-9.03506-15.84156.93921-15.00749,2.40482,0.2011,2.39149-3.55,0-3.75h0Z" transform="translate(-118.37379 -446.96345)" fill="#fff"/>
  <path d="M148.87144,470.269a8.61552,8.61552,0,0,1,.83334-4.3601c1.05929-2.15858-2.17378-4.06137-3.238-1.8927a12.50851,12.50851,0,0,0-1.34533,6.2528c0.13262,2.39987,3.88347,2.41533,3.75,0h0Z" transform="translate(-118.37379 -446.96345)" fill="#fff"/>
  <path d="M150.2411,450.65291a157.77225,157.77225,0,0,0-5.05268,19.11763c-0.46708,2.357,3.1466,3.36584,3.616.9969a157.77227,157.77227,0,0,1,5.05268-19.11763c0.7628-2.2954-2.85744-3.27965-3.616-.9969h0Z" transform="translate(-118.37379 -446.96345)" fill="#fff"/>
  <path d="M151.59026,453.83785q1.625,8.24765,2.90953,16.55379l2.30647-2.30647-0.542-.30248c-1.731-1.68368-4.38539.96526-2.65165,2.65165a4.08632,4.08632,0,0,0,2.19677,1.26687,1.90141,1.90141,0,0,0,2.30647-2.30647q-1.28489-8.30743-2.90953-16.55379c-0.46608-2.36561-4.08124-1.3642-3.616.9969h0Z" transform="translate(-118.37379 -446.96345)" fill="#fff"/>
  <path d="M147.74959,467.313a40.76845,40.76845,0,0,1,8.55822-2.09379c2.36151-.3004,2.39152-4.05421,0-3.75a45.10783,45.10783,0,0,0-9.55512,2.22774c-2.2566.80547-1.284,4.43019,0.9969,3.616h0Z" transform="translate(-118.37379 -446.96345)" fill="#fff"/>
  <path d="M128.07964,449.78346c-3.95782-.04878-7.531,3.54982-5.84509,7.64845,0.92773,2.25535,3.47045,3.69644,5.009,5.512,0.91377,1.07823,1.54477,1.6628,1.48635,3.14188-0.06978,1.76676.004,1.07662-1.28015,1.5481-2.89871,1.06427-6.1169-.8894-4.94225-4.09351,0.83194-2.26928-2.79083-3.24785-3.616-.9969-2.698,7.35936,5.74757,10.80152,11.50758,8.11047,2.519-1.17687,3.16353-3.78214,2.23781-6.30568a14.80136,14.80136,0,0,0-3.15415-4.53c-1.0235-1.13227-7.13989-6.3555-1.4031-6.28479,2.41386,0.02975,2.41529-3.72023,0-3.75h0Z" transform="translate(-118.37379 -446.96345)" fill="#fff"/>
  <path d="M194.02912,457.40424l-0.08249,14.63944c-0.014,2.47819,3.46608,2.32842,3.75,0l0.16485-1.35191c0.29144-2.39009-3.46113-2.369-3.75,0l-0.16485,1.35191h3.75l0.08249-14.63944c0.0136-2.41346-3.73639-2.41628-3.75,0h0Z" transform="translate(-118.37379 -446.96345)" fill="#fff"/>
  <path d="M196.05743,454.06751a1.87612,1.87612,0,0,0,0-3.75,1.87612,1.87612,0,0,0,0,3.75h0Z" transform="translate(-118.37379 -446.96345)" fill="#fff"/>
  <path d="M228.78135,452.60206c-5.30632-.918-9.39059,2.44641-11.492,7.12409-1.77766,3.957-3.12707,9.775,1.07655,12.71414,3.508,2.45276,8.91291,1.8174,10.58953-2.49874,1.68721-4.34342-1.9943-7.23727-6.06354-6.6454-2.08333.303-1.60008,3.81474,0.49845,3.683a11.64039,11.64039,0,0,0,7.39-3.13194c1.80942-1.60429-.85069-4.24844-2.65165-2.65165a7.327,7.327,0,0,1-4.73831,2.03359l0.49845,3.683q2.98909,1.93032.00839,3.14492a4.41141,4.41141,0,0,1-3.2843-.59737c-1.8865-1.36913-1.34874-3.73882-.86186-5.598,0.94421-3.60544,3.58057-8.41406,8.03345-7.64369,2.3603,0.40835,3.37405-3.20478.9969-3.616h0Z" transform="translate(-118.37379 -446.96345)" fill="#fff"/>
  <path d="M160.60939,453.94706l4.87086,10.16307a27.58133,27.58133,0,0,1,2.24413,5.8673,5.23822,5.23822,0,0,0,.87282,2.4401,1.90489,1.90489,0,0,0,2.94483.37948,10.086,10.086,0,0,0,2.80153-7.09817c0.21411-4.62054.20674-9.06982,1.08-13.6548,0.44916-2.35832-3.16433-3.36865-3.616-.9969A64.55124,64.55124,0,0,0,170.64,460.5534c-0.128,3.20838.69918,7.09178-1.74959,9.592l2.94483,0.37948c-0.55423-.75113-0.62841-2.77285-0.93612-3.65675a46.54714,46.54714,0,0,0-2.18083-4.65066l-4.87086-10.16307c-1.0426-2.17539-4.27708-.27531-3.238,1.8927h0Z" transform="translate(-118.37379 -446.96345)" fill="#fff"/>
  <path d="M200.60866,453.94706l4.87086,10.16307a27.58134,27.58134,0,0,1,2.24413,5.8673,5.23822,5.23822,0,0,0,.87282,2.4401,1.90489,1.90489,0,0,0,2.94483.37948,10.086,10.086,0,0,0,2.80153-7.09817c0.21411-4.62054.20674-9.06982,1.08-13.6548,0.44916-2.35832-3.16433-3.36865-3.616-.9969a64.55126,64.55126,0,0,0-1.16753,9.50626c-0.128,3.20838.69918,7.09178-1.74959,9.592l2.94483,0.37948c-0.55423-.75113-0.62841-2.77285-0.93612-3.65675a46.54714,46.54714,0,0,0-2.18083-4.65066l-4.87086-10.16307c-1.0426-2.17539-4.27708-.27531-3.238,1.8927h0Z" transform="translate(-118.37379 -446.96345)" fill="#fff"/>
  <path d="M164.48122,471.454q0.19639-9.66634.25583-19.3343c0.01484-2.41349-3.73514-2.41621-3.75,0q-0.05944,9.66815-.25583,19.3343c-0.049,2.41406,3.701,2.41383,3.75,0h0Z" transform="translate(-118.37379 -446.96345)" fill="#fff"/>
  <path d="M177.16751,453.94706l4.87086,10.16307a27.58134,27.58134,0,0,1,2.24413,5.8673,5.23822,5.23822,0,0,0,.87282,2.4401,1.90489,1.90489,0,0,0,2.94483.37948,10.086,10.086,0,0,0,2.80153-7.09817c0.21411-4.62054.20674-9.06982,1.08-13.6548,0.44916-2.35832-3.16433-3.36865-3.616-.9969a64.55127,64.55127,0,0,0-1.16753,9.50626c-0.128,3.20838.69918,7.09178-1.74959,9.592l2.94483,0.37948c-0.55423-.75113-0.62841-2.77285-0.93612-3.65675a46.54714,46.54714,0,0,0-2.18083-4.65066l-4.87086-10.16307c-1.0426-2.17539-4.27708-.27531-3.238,1.8927h0Z" transform="translate(-118.37379 -446.96345)" fill="#fff"/>
  <path d="M181.03934,471.454q0.19639-9.66634.25583-19.3343c0.01484-2.41349-3.73515-2.41621-3.75,0q-0.05944,9.66815-.25583,19.3343c-0.049,2.41406,3.701,2.41383,3.75,0h0Z" transform="translate(-118.37379 -446.96345)" fill="#fff"/>
  <path d="M203.4568,471.19367a127.29243,127.29243,0,0,1,.87528-18.364c0.28767-2.39084-3.46483-2.37007-3.75,0a127.29244,127.29244,0,0,0-.87528,18.364c0.059,2.409,3.80924,2.418,3.75,0h0Z" transform="translate(-118.37379 -446.96345)" fill="#fff"/>
  <path d="M308.05633,454.12653c-0.72718,3.14918-1.33,6.318-1.77843,9.51925-0.29052,2.07409-.74021,4.41691.44981,6.29633,2.54991,4.02713,8.22077,2.37318,11.18159-.0749,1.86144-1.53909-.80438-4.179-2.65165-2.65165-1.42488,1.17813-4.66577,2.63458-5.57137-.07405-0.29417-.87986.28-3.02853,0.38112-3.704,0.41846-2.79391.96946-5.56187,1.605-8.31411,0.54232-2.34859-3.07243-3.35113-3.616-.9969h0Z" transform="translate(-118.37379 -446.96345)" fill="#fff"/>
  <path d="M307.521,464.74353c2.79726-.88089,7.95256,1.09156,9.46517-2.44784,0.93792-2.19467-2.2915-4.10748-3.238-1.8927-0.16586.38811-.129,0.29988-0.70789,0.30882-0.56163.00867-1.12294-.01131-1.68445-0.00009a16.895,16.895,0,0,0-4.83171.41576c-2.29384.72236-1.31421,4.34384,0.9969,3.616h0Z" transform="translate(-118.37379 -446.96345)" fill="#fff"/>
  <path d="M309.90135,454.68623a11.78975,11.78975,0,0,1,5.4658-.52063,1.88426,1.88426,0,0,0,1.875-1.875,1.92306,1.92306,0,0,0-1.875-1.875,14.29856,14.29856,0,0,0-6.4627.65458c-2.27422.76823-1.29847,4.39143,0.9969,3.616h0Z" transform="translate(-118.37379 -446.96345)" fill="#fff"/>
  <path d="M269.32666,453.18075c-0.72718,3.14918-1.33,6.318-1.77843,9.51925-0.29052,2.07409-.74021,4.41691.44981,6.29633,2.54991,4.02713,8.22077,2.37318,11.18159-.0749,1.86144-1.53909-.80438-4.179-2.65165-2.65165-1.42488,1.17813-4.66577,2.63458-5.57137-.07405-0.29417-.87986.28-3.02853,0.38112-3.704,0.41846-2.79391.96946-5.56187,1.605-8.31411,0.54232-2.34859-3.07243-3.35113-3.616-.9969h0Z" transform="translate(-118.37379 -446.96345)" fill="#fff"/>
  <path d="M268.7913,463.79775c2.79726-.88089,7.95256,1.09156,9.46517-2.44784,0.93792-2.19467-2.2915-4.10748-3.238-1.8927-0.16586.38811-.129,0.29988-0.70789,0.30882-0.56163.00867-1.12294-.01131-1.68445-0.00009a16.895,16.895,0,0,0-4.83172.41576c-2.29384.72236-1.31421,4.34384,0.9969,3.616h0Z" transform="translate(-118.37379 -446.96345)" fill="#fff"/>
  <path d="M271.17167,453.74045a11.78975,11.78975,0,0,1,5.4658-.52063,1.88426,1.88426,0,0,0,1.875-1.875,1.92306,1.92306,0,0,0-1.875-1.875,14.29855,14.29855,0,0,0-6.4627.65458c-2.27422.76823-1.29847,4.39143,0.9969,3.616h0Z" transform="translate(-118.37379 -446.96345)" fill="#fff"/>
  <path d="M291.949,455.51885l0.66911,14.2819,3.683-.49845c-1.12065-3.94519-1.97009-8.45326-1.1404-12.54276,0.24865-1.22557.34536-2.42694,1.63188-2.81494,1.41178-.42577.65058,0.51677,0.20527,1.40453a8.75032,8.75032,0,0,1-4.43749,4.02756c-1.90951.88754-.55511,4.152,1.4448,3.427,2.04082-.73976,3.57228.294,5.07594,1.52663,2.28923,1.87665,2.86514,3.402,1.90678,6.15485-0.79508,2.28381,2.8263,3.2654,3.616.9969,1.176-3.37811.69173-6.74-2.04038-9.17348-2.66149-2.37061-5.965-4.42235-9.55528-3.12095l1.4448,3.427a11.79156,11.79156,0,0,0,6.77587-7.93981c0.60964-2.74582-.33662-5.7194-3.61371-5.60658-9.188.31634-6.39788,16.06384-4.93016,21.23088,0.56367,1.98439,3.78443,1.666,3.683-.49845l-0.66911-14.2819c-0.11257-2.4028-3.86321-2.41653-3.75,0h0Z" transform="translate(-118.37379 -446.96345)" fill="#fff"/>
  <path d="M243.879,454.10291a113.0815,113.0815,0,0,0,1.08038,16.52607c0.31381,2.35733,4.068,2.38851,3.75,0a113.0815,113.0815,0,0,1-1.08038-16.52607c0.03235-2.41391-3.71764-2.41511-3.75,0h0Z" transform="translate(-118.37379 -446.96345)" fill="#fff"/>
  <path d="M240.06975,454.492h11.568a1.87612,1.87612,0,0,0,0-3.75h-11.568a1.87612,1.87612,0,0,0,0,3.75h0Z" transform="translate(-118.37379 -446.96345)" fill="#fff"/>
  <path d="M253.95308,454.76263c0.32866,5.52456-.96965,10.93907-0.67606,16.46018,0.12766,2.40063,3.87846,2.41566,3.75,0-0.29359-5.52111,1.00472-10.93563.67606-16.46018-0.14268-2.39827-3.89365-2.4146-3.75,0h0Z" transform="translate(-118.37379 -446.96345)" fill="#fff"/>
  <path d="M261.57718,453.99686a103.248,103.248,0,0,0-.08181,18.64929c0.19684,2.38815,3.94857,2.40918,3.75,0a103.248,103.248,0,0,1,.08181-18.64929c0.23258-2.40048-3.519-2.38445-3.75,0h0Z" transform="translate(-118.37379 -446.96345)" fill="#fff"/>
  <path d="M255.20371,463.52115h6.924a1.87612,1.87612,0,0,0,0-3.75h-6.924a1.87612,1.87612,0,0,0,0,3.75h0Z" transform="translate(-118.37379 -446.96345)" fill="#fff"/>
  <path d="M325.33056,450.57923a157.77225,157.77225,0,0,0-5.05268,19.11763l3.683,0.49845a8.148,8.148,0,0,1,.83334-4.3601c0.94374-2.19325-2.28583-4.10558-3.238-1.8927a14.932,14.932,0,0,0-1.34533,6.2528c0.00812,2.05161,3.26111,2.62753,3.683.49845a157.77225,157.77225,0,0,1,5.05268-19.11763c0.7628-2.2954-2.85744-3.27965-3.616-.9969h0Z" transform="translate(-118.37379 -446.96345)" fill="#fff"/>
  <path d="M326.67973,453.76417q1.625,8.24765,2.90953,16.55379l2.30647-2.30647-0.542-.30248c-1.731-1.68368-4.38539.96526-2.65165,2.65165a4.08632,4.08632,0,0,0,2.19677,1.26687,1.90141,1.90141,0,0,0,2.30647-2.30647q-1.28489-8.30743-2.90953-16.55379c-0.46608-2.36561-4.08124-1.3642-3.616.9969h0Z" transform="translate(-118.37379 -446.96345)" fill="#fff"/>
  <path d="M322.83905,467.23934a40.76845,40.76845,0,0,1,8.55822-2.09379c2.36151-.3004,2.39152-4.05421,0-3.75a45.10783,45.10783,0,0,0-9.55512,2.22774c-2.2566.80547-1.284,4.43019,0.9969,3.616h0Z" transform="translate(-118.37379 -446.96345)" fill="#fff"/>
  <path d="M334.85318,448.774q0.198,10.62878-.21244,21.24824a1.90144,1.90144,0,0,0,2.37345,1.808l7.19076-1.22386c2.37413-.40407,1.36744-4.01846-0.9969-3.616l-7.19076,1.22386,2.37345,1.808q0.41045-10.6227.21244-21.24824c-0.04489-2.41017-3.795-2.418-3.75,0h0Z" transform="translate(-118.37379 -446.96345)" fill="#fff"/>
</svg>
