<svg xmlns="http://www.w3.org/2000/svg" width="204.2623mm" height="13.06973mm" viewBox="0 0 579.01125 37.04805">
  <title>title</title>
  <path d="M607.43728,328.29119l-0.35558,15.10336c-0.04849,2.05963,3.33292,2.622,3.683.49845l0.23039-1.39746c0.3892-2.36075-3.2238-3.37611-3.616-.9969l-0.23039,1.39746,3.683,0.49845,0.35558-15.10336c0.05683-2.41406-3.69319-2.41315-3.75,0h0Z" transform="translate(-117.96867 -312.20781)" fill="#fff"/>
  <path d="M609.31228,324.96613a1.87612,1.87612,0,0,0,0-3.75,1.87612,1.87612,0,0,0,0,3.75h0Z" transform="translate(-117.96867 -312.20781)" fill="#fff"/>
  <path d="M594.4792,326.13906c-0.72718,3.14918-1.33,6.318-1.77843,9.51925-0.29052,2.07409-.74021,4.41691.44981,6.29633,2.54991,4.02713,8.22077,2.37318,11.18159-.0749,1.86144-1.53909-.80438-4.179-2.65165-2.65165-1.42488,1.17813-4.66577,2.63458-5.57137-.07405-0.29417-.87986.28-3.02853,0.38112-3.704,0.41846-2.79391.96946-5.56187,1.605-8.31411,0.54232-2.34859-3.07243-3.35113-3.616-.9969h0Z" transform="translate(-117.96867 -312.20781)" fill="#fff"/>
  <path d="M593.94385,336.75606c2.79726-.88089,7.95256,1.09156,9.46517-2.44784,0.93792-2.19467-2.2915-4.10748-3.238-1.8927-0.16586.38811-.129,0.29988-0.70789,0.30882-0.56163.00867-1.12294-.01131-1.68445-0.00009a16.895,16.895,0,0,0-4.83172.41576c-2.29384.72236-1.31421,4.34384,0.9969,3.616h0Z" transform="translate(-117.96867 -312.20781)" fill="#fff"/>
  <path d="M596.32421,326.69876a11.78975,11.78975,0,0,1,5.4658-.52063,1.88426,1.88426,0,0,0,1.875-1.875,1.92306,1.92306,0,0,0-1.875-1.875,14.29856,14.29856,0,0,0-6.4627.65458c-2.27422.76823-1.29847,4.39143,0.9969,3.616h0Z" transform="translate(-117.96867 -312.20781)" fill="#fff"/>
  <path d="M589.04208,322.38487c-5.30632-.918-9.39059,2.44641-11.492,7.12409-1.77766,3.957-3.12707,9.775,1.07655,12.71414,3.508,2.45276,8.91291,1.8174,10.58953-2.49874,1.68721-4.34342-1.9943-7.23727-6.06354-6.6454-2.08333.303-1.60008,3.81474,0.49845,3.683a11.64039,11.64039,0,0,0,7.39-3.13194c1.80942-1.60429-.85069-4.24844-2.65165-2.65165A7.327,7.327,0,0,1,583.651,333.012l0.49845,3.683q2.98909,1.93032.00839,3.14492a4.41141,4.41141,0,0,1-3.2843-.59737c-1.8865-1.36913-1.34874-3.73882-.86186-5.598,0.94421-3.60544,3.58057-8.41406,8.03345-7.64369,2.3603,0.40835,3.37405-3.20478.9969-3.616h0Z" transform="translate(-117.96867 -312.20781)" fill="#fff"/>
  <path d="M613.77034,327.60391l1.25268,14.862,3.683-.49845a31.23545,31.23545,0,0,1-.2851-13.68233c0.29048-1.37092,1.43643-5.125,1.20436-1.65883a6.43538,6.43538,0,0,1-3.91275,5.44644l2.27217,2.94483c3.81284-3.4995,7.65759,5.11243,6.50848,7.77425-0.94653,2.19256,2.28311,4.10466,3.238,1.8927,2.951-6.83563-5.09151-19.02477-12.39815-12.31859-1.67522,1.53755.4526,3.77241,2.27217,2.94483a10.19855,10.19855,0,0,0,5.81064-8.4251c0.24512-2.66874-.51279-6.25444-3.826-6.14127-3.51273.12-4.411,4.52107-4.93194,7.23086a35.74233,35.74233,0,0,0,.432,14.98911c0.47258,2.02033,3.86286,1.63514,3.683-.49845l-1.25268-14.862c-0.20121-2.38722-3.953-2.40863-3.75,0h0Z" transform="translate(-117.96867 -312.20781)" fill="#fff"/>
  <path d="M154.72242,322.045c-8.93068-1.83369-14.59572,9.42013-11.73578,16.96816,1.26583,3.3408,4.64489,5.91649,8.33581,5.33639,3.92521-.61692,5.61028-4.49274,6.77142-7.82448,0.79582-2.28353-2.82558-3.26506-3.616-.9969-0.474,1.36007-1.02774,3.38668-2.22977,4.322-3.162,2.46035-5.88717-1.30084-6.12815-4.09807-0.36583-4.24646,2.24292-11.19212,7.60561-10.091,2.35556,0.48365,3.363-3.13023.9969-3.616h0Z" transform="translate(-117.96867 -312.20781)" fill="#fff"/>
  <path d="M131.86341,335.14662c5.53586-1.49189-.4414-9.13509-2.8274-10.75692-6.17111-4.19467-10.13627,1.66007-10.91607,7.45532-0.703,5.2244.90456,12.84481,7.78559,11.54184,7.338-1.3895,6.63895-9.85641,6.56941-15.46421-0.0299-2.41129-3.78-2.41786-3.75,0,0.03245,2.61725.52253,5.42263-.13984,7.99418-0.47143,1.83027-1.66677,3.76-3.79466,3.86592-2.25971.11252-2.75247-1.96147-2.97682-3.74016-0.29713-2.35576-.24682-6.43731,1.51974-8.30714,1.55739-1.64843,3.49611-.54511,4.79873.751,0.49486,0.49241,1.85023,3.28237,2.73442,3.04409-2.32766.62729-1.34,4.24582,0.9969,3.616h0Z" transform="translate(-117.96867 -312.20781)" fill="#fff"/>
  <path d="M171.94594,336.14662c5.53586-1.49189-.4414-9.13509-2.8274-10.75692-6.17111-4.19467-10.13627,1.66007-10.91607,7.45532-0.703,5.2244.90456,12.84481,7.78559,11.54184,7.338-1.3895,6.63895-9.85641,6.56941-15.46421-0.0299-2.41129-3.78-2.41786-3.75,0,0.03245,2.61725.52253,5.42263-.13984,7.99418-0.47143,1.83027-1.66677,3.76-3.79466,3.86592-2.25971.11252-2.75247-1.96147-2.97682-3.74016-0.29713-2.35576-.24682-6.43731,1.51974-8.30714,1.55739-1.64843,3.49611-.54511,4.79873.751,0.49486,0.49241,1.85023,3.28237,2.73442,3.04409-2.32766.62729-1.34,4.24582,0.9969,3.616h0Z" transform="translate(-117.96867 -312.20781)" fill="#fff"/>
  <path d="M238.43781,336.14662c5.53586-1.49189-.4414-9.13509-2.8274-10.75692-6.17111-4.19467-10.13627,1.66007-10.91607,7.45532-0.703,5.2244.90456,12.84481,7.78559,11.54184,7.338-1.3895,6.63895-9.85641,6.56941-15.46421-0.0299-2.41129-3.78-2.41786-3.75,0,0.03245,2.61725.52253,5.42263-.13984,7.99418-0.47143,1.83027-1.66677,3.76-3.79466,3.86592-2.25971.11252-2.75247-1.96147-2.97682-3.74016-0.29713-2.35576-.24682-6.43731,1.51974-8.30714,1.55739-1.64843,3.49611-.54511,4.79873.751,0.49486,0.49241,1.85023,3.28237,2.73442,3.04409-2.32766.62729-1.34,4.24582,0.9969,3.616h0Z" transform="translate(-117.96867 -312.20781)" fill="#fff"/>
  <path d="M421.02343,337.14662c5.53586-1.49189-.4414-9.13509-2.8274-10.75692-6.17111-4.19467-10.13627,1.66007-10.91607,7.45532-0.703,5.2244.90456,12.84481,7.78559,11.54184,7.338-1.3895,6.63895-9.85641,6.56941-15.46421-0.0299-2.41129-3.78-2.41786-3.75,0,0.03245,2.61725.52253,5.42263-.13984,7.99418-0.47143,1.83027-1.66677,3.76-3.79466,3.86592-2.25971.11252-2.75247-1.96147-2.97682-3.74016-0.29713-2.35576-.24682-6.43731,1.51974-8.30714,1.55739-1.64843,3.49611-.54511,4.79873.751,0.49486,0.49241,1.85023,3.28237,2.73442,3.04409-2.32766.62729-1.34,4.24582,0.9969,3.616h0Z" transform="translate(-117.96867 -312.20781)" fill="#fff"/>
  <path d="M199.0673,323.05888c-0.71577,6.40633,1.026,12.67137.99974,19.07034-0.00991,2.41333,3.74008,2.41647,3.75,0,0.02626-6.39883-1.71553-12.66383-.99974-19.07034,0.26755-2.39467-3.48457-2.37563-3.75,0h0Z" transform="translate(-117.96867 -312.20781)" fill="#fff"/>
  <path d="M201.04988,324.22339c2.53073-.15089,8.49818-0.76787,8.0884,3.28167-0.30512,3.01523-4.18021,4.72526-6.84161,4.6513-2.414-.06709-2.41218,3.683,0,3.75,4.74888,0.132,10.43616-3.32543,10.61857-8.48638,0.23238-6.57437-6.93441-7.24059-11.86536-6.94658-2.39822.143-2.41458,3.894,0,3.75h0Z" transform="translate(-117.96867 -312.20781)" fill="#fff"/>
  <path d="M439.0673,323.05888c-0.71577,6.40633,1.026,12.67137.99974,19.07034-0.00991,2.41333,3.74008,2.41647,3.75,0,0.02626-6.39883-1.71553-12.66383-.99974-19.07034,0.26755-2.39467-3.48457-2.37563-3.75,0h0Z" transform="translate(-117.96867 -312.20781)" fill="#fff"/>
  <path d="M441.04988,324.22339c2.53073-.15089,8.49818-0.76787,8.0884,3.28167-0.30512,3.01523-4.18021,4.72526-6.84161,4.6513-2.414-.06709-2.41218,3.683,0,3.75,4.74888,0.132,10.43616-3.32543,10.61857-8.48638,0.23238-6.57437-6.93441-7.24059-11.86536-6.94658-2.39822.143-2.41458,3.894,0,3.75h0Z" transform="translate(-117.96867 -312.20781)" fill="#fff"/>
  <path d="M254.99077,323.66733q0.1724,8.1269-.12471,16.24767c-0.08828,2.41352,3.66186,2.4099,3.75,0q0.29712-8.1233.12471-16.24767c-0.05112-2.40966-3.8013-2.41807-3.75,0h0Z" transform="translate(-117.96867 -312.20781)" fill="#fff"/>
  <path d="M254.35869,325.39747c4.914-1.94242,8.9592,2.65086,9.13145,7.39131,0.18407,5.06568-6.02515,8.86967-10.72493,8.20746-2.36031-.33257-3.38044,3.2802-0.9969,3.616,6.63918,0.93548,15.89555-3.84472,15.524-11.472-0.3441-7.06374-6.31408-14.36951-13.93051-11.3589-2.21828.87684-1.25174,4.50488,0.9969,3.616h0Z" transform="translate(-117.96867 -312.20781)" fill="#fff"/>
  <path d="M173.78219,322.94351q0.198,9.69516-.21244,19.38011a1.90282,1.90282,0,0,0,2.37345,1.808l7.19076-1.11626c2.3775-.36907,1.36783-3.98314-0.9969-3.616l-7.19076,1.11626,2.37345,1.808q0.41044-9.68849.21244-19.38011c-0.04921-2.40982-3.79938-2.41807-3.75,0h0Z" transform="translate(-117.96867 -312.20781)" fill="#fff"/>
  <path d="M190.02631,322.51842a157.77226,157.77226,0,0,0-5.05268,19.11763l3.683,0.49845a8.148,8.148,0,0,1,.83334-4.3601c0.94374-2.19325-2.28583-4.10558-3.238-1.8927a14.932,14.932,0,0,0-1.34533,6.2528c0.00812,2.05161,3.26111,2.62753,3.683.49845a157.77227,157.77227,0,0,1,5.05268-19.11763c0.7628-2.2954-2.85744-3.27965-3.616-.9969h0Z" transform="translate(-117.96867 -312.20781)" fill="#fff"/>
  <path d="M191.37548,325.70336q1.625,8.24765,2.90953,16.55379l2.30647-2.30647-0.542-.30248c-1.731-1.68368-4.38539.96526-2.65165,2.65165a4.08632,4.08632,0,0,0,2.19677,1.26687,1.90141,1.90141,0,0,0,2.30647-2.30647q-1.28489-8.30743-2.90953-16.55379c-0.46608-2.36561-4.08124-1.3642-3.616.9969h0Z" transform="translate(-117.96867 -312.20781)" fill="#fff"/>
  <path d="M269.89063,322.51842A157.77224,157.77224,0,0,0,264.838,341.636l3.683,0.49845a8.148,8.148,0,0,1,.83334-4.3601c0.94374-2.19325-2.28583-4.10558-3.238-1.8927a14.932,14.932,0,0,0-1.34533,6.2528c0.00812,2.05161,3.26111,2.62753,3.683.49845a157.77227,157.77227,0,0,1,5.05268-19.11763c0.7628-2.2954-2.85744-3.27965-3.616-.9969h0Z" transform="translate(-117.96867 -312.20781)" fill="#fff"/>
  <path d="M271.2398,325.70336q1.625,8.24765,2.90953,16.55379l2.30647-2.30647-0.542-.30248c-1.731-1.68368-4.38539.96526-2.65165,2.65165a4.08632,4.08632,0,0,0,2.19677,1.26687,1.90141,1.90141,0,0,0,2.30647-2.30647q-1.28489-8.30743-2.90953-16.55379c-0.46608-2.36561-4.08124-1.3642-3.616.9969h0Z" transform="translate(-117.96867 -312.20781)" fill="#fff"/>
  <path d="M187.53481,339.17852a40.76845,40.76845,0,0,1,8.55822-2.09379c2.36151-.3004,2.39152-4.05421,0-3.75a45.10782,45.10782,0,0,0-9.55512,2.22774c-2.2566.80547-1.284,4.43019,0.9969,3.616h0Z" transform="translate(-117.96867 -312.20781)" fill="#fff"/>
  <path d="M267.1494,338.50708a40.81057,40.81057,0,0,1,8.77642-.75091c2.41405,0.04608,2.41407-3.70392,0-3.75a45.5598,45.5598,0,0,0-9.77332.88486c-2.36505.46944-1.36393,4.08465,0.9969,3.616h0Z" transform="translate(-117.96867 -312.20781)" fill="#fff"/>
  <path d="M372.97666,322.51842A157.77224,157.77224,0,0,0,367.924,341.636l3.683,0.49845a8.148,8.148,0,0,1,.83334-4.3601c0.94374-2.19325-2.28583-4.10558-3.238-1.8927a14.932,14.932,0,0,0-1.34533,6.2528c0.00812,2.05161,3.26111,2.62753,3.683.49845a157.77227,157.77227,0,0,1,5.05268-19.11763c0.7628-2.2954-2.85744-3.27965-3.616-.9969h0Z" transform="translate(-117.96867 -312.20781)" fill="#fff"/>
  <path d="M374.32582,325.70336q1.625,8.24765,2.90953,16.55379l2.30647-2.30647-0.542-.30248c-1.731-1.68368-4.38539.96526-2.65165,2.65165a4.08632,4.08632,0,0,0,2.19677,1.26687,1.90141,1.90141,0,0,0,2.30647-2.30647q-1.28489-8.30743-2.90953-16.55379c-0.46608-2.36561-4.08124-1.3642-3.616.9969h0Z" transform="translate(-117.96867 -312.20781)" fill="#fff"/>
  <path d="M370.23542,338.50708a40.81057,40.81057,0,0,1,8.77642-.75091c2.41405,0.04608,2.41407-3.70392,0-3.75a45.5598,45.5598,0,0,0-9.77332.88486c-2.36505.46944-1.36393,4.08465,0.9969,3.616h0Z" transform="translate(-117.96867 -312.20781)" fill="#fff"/>
  <path d="M400.142,323.51842a157.77226,157.77226,0,0,0-5.05268,19.11763l3.683,0.49845a8.148,8.148,0,0,1,.83334-4.3601c0.94374-2.19325-2.28583-4.10558-3.238-1.8927a14.932,14.932,0,0,0-1.34533,6.2528c0.00812,2.05161,3.26111,2.62753,3.683.49845a157.77227,157.77227,0,0,1,5.05268-19.11763c0.7628-2.2954-2.85744-3.27965-3.616-.9969h0Z" transform="translate(-117.96867 -312.20781)" fill="#fff"/>
  <path d="M401.49117,326.70336q1.625,8.24765,2.90953,16.55379l2.30647-2.30647-0.542-.30248c-1.731-1.68368-4.38539.96526-2.65165,2.65165a4.08632,4.08632,0,0,0,2.19677,1.26687,1.90141,1.90141,0,0,0,2.30647-2.30647q-1.28489-8.30743-2.90953-16.55379c-0.46608-2.36561-4.08124-1.3642-3.616.9969h0Z" transform="translate(-117.96867 -312.20781)" fill="#fff"/>
  <path d="M396.40076,338.50708a40.81057,40.81057,0,0,1,8.77642-.75091c2.41405,0.04608,2.41407-3.70392,0-3.75a45.5598,45.5598,0,0,0-9.77332.88486c-2.36505.46944-1.36393,4.08465,0.9969,3.616h0Z" transform="translate(-117.96867 -312.20781)" fill="#fff"/>
  <path d="M220.00883,321.649c-3.95782-.04878-7.531,3.54982-5.84509,7.64845,0.92773,2.25535,3.47045,3.69644,5.009,5.512,0.91377,1.07823,1.54477,1.6628,1.48635,3.14188-0.06978,1.76676.004,1.07662-1.28015,1.5481-2.89871,1.06427-6.1169-.8894-4.94225-4.09351,0.83194-2.26928-2.79083-3.24785-3.616-.9969-2.698,7.35936,5.74757,10.80152,11.50758,8.11047,2.519-1.17687,3.16353-3.78214,2.23781-6.30568a14.80136,14.80136,0,0,0-3.15415-4.53c-1.0235-1.13227-7.13989-6.3555-1.4031-6.28479,2.41386,0.02975,2.41529-3.72023,0-3.75h0Z" transform="translate(-117.96867 -312.20781)" fill="#fff"/>
  <path d="M309.326,327.19381l-0.17746,14.65571c-0.03006,2.48252,3.455,2.32052,3.75,0l0.17223-1.35483c0.30352-2.38758-3.44929-2.36545-3.75,0l-0.17223,1.35483h3.75l0.17746-14.65571c0.02923-2.41385-3.72075-2.41533-3.75,0h0Z" transform="translate(-117.96867 -312.20781)" fill="#fff"/>
  <path d="M311.537,322.3267a1.87612,1.87612,0,0,0,0-3.75,1.87612,1.87612,0,0,0,0,3.75h0Z" transform="translate(-117.96867 -312.20781)" fill="#fff"/>
  <path d="M329.28936,327.19381l-0.17746,14.65571c-0.03006,2.48252,3.455,2.32052,3.75,0l0.17223-1.35483c0.30352-2.38758-3.44929-2.36545-3.75,0l-0.17223,1.35483h3.75l0.17746-14.65571c0.02923-2.41385-3.72075-2.41533-3.75,0h0Z" transform="translate(-117.96867 -312.20781)" fill="#fff"/>
  <path d="M331.50034,322.3267a1.87612,1.87612,0,0,0,0-3.75,1.87612,1.87612,0,0,0,0,3.75h0Z" transform="translate(-117.96867 -312.20781)" fill="#fff"/>
  <path d="M348.01765,327.19381l-0.17746,14.65571c-0.03006,2.48252,3.455,2.32052,3.75,0l0.17223-1.35483c0.30352-2.38758-3.44929-2.36545-3.75,0l-0.17223,1.35483h3.75l0.17746-14.65571c0.02923-2.41385-3.72075-2.41533-3.75,0h0Z" transform="translate(-117.96867 -312.20781)" fill="#fff"/>
  <path d="M350.22863,322.3267a1.87612,1.87612,0,0,0,0-3.75,1.87612,1.87612,0,0,0,0,3.75h0Z" transform="translate(-117.96867 -312.20781)" fill="#fff"/>
  <path d="M303.49383,322.51066c-6.74213-.76559-12.16712,6.88527-11.04954,13.27989,1.29245,7.39522,8.49845,9.8898,14.84194,6.942,2.18646-1.01605.28413-4.24959-1.8927-3.238-4.20356,1.9534-8.99836.04837-9.31854-4.96671-0.25654-4.01834,3.24088-8.74156,7.41883-8.26714,2.39388,0.27183,2.37448-3.48037,0-3.75h0Z" transform="translate(-117.96867 -312.20781)" fill="#fff"/>
  <path d="M390.42781,322.51066c-6.64675-.8376-11.076,7.37812-10.13553,13.27989,1.10312,6.92262,7.48273,10.12064,13.64646,6.942,2.14559-1.10649.25093-4.34349-1.8927-3.238-10.12841,5.22327-10.40692-14.34137-1.61823-13.23385,2.38812,0.30094,2.36622-3.45182,0-3.75h0Z" transform="translate(-117.96867 -312.20781)" fill="#fff"/>
  <path d="M314.68211,323.56671c0.562,6.46287,3.04762,12.77195,4.91287,18.95133,0.513,1.69948,3.18829,1.86843,3.616,0a166.78978,166.78978,0,0,1,5.72064-18.51406c0.80887-2.27854-2.813-3.259-3.616-.9969a166.78827,166.78827,0,0,0-5.72064,18.51406h3.616c-1.75632-5.8185-4.25008-11.87285-4.77892-17.95444-0.20747-2.38586-3.95938-2.40781-3.75,0h0Z" transform="translate(-117.96867 -312.20781)" fill="#fff"/>
  <path d="M336.03935,322.13844q0.198,10.62878-.21244,21.24824a1.90144,1.90144,0,0,0,2.37345,1.808l7.19076-1.22386c2.37413-.40407,1.36744-4.01846-0.9969-3.616l-7.19076,1.22386,2.37345,1.808q0.41045-10.6227.21244-21.24824c-0.04489-2.41017-3.795-2.418-3.75,0h0Z" transform="translate(-117.96867 -312.20781)" fill="#fff"/>
  <path d="M356.25816,325.73117a45.34689,45.34689,0,0,1,10.28168.09081l-1.619-2.82135a31.52869,31.52869,0,0,0-2.628,5.05736c-0.77352,1.63465-2.05007,2.4353-3.23551,3.73843-2.23279,2.45447-3.10884,6.06108-5.46386,8.38305a1.891,1.891,0,0,0,.82738,3.13385c4.03923,0.9696,7.93769.06793,11.88254-.93677,2.33709-.59523,1.34666-4.21292-0.9969-3.616-3.25189.82821-6.54085,1.74042-9.88875,0.93677l0.82738,3.13385c2.46755-2.43292,3.40009-6.09909,5.70273-8.652,1.246-1.38144,2.64712-2.27521,3.49772-3.9934a36.56265,36.56265,0,0,1,2.71332-5.2924c0.894-1.26734-.33844-2.70854-1.619-2.82135a49.32719,49.32719,0,0,0-11.27858.04314c-2.38005.32984-1.36705,3.94366,0.9969,3.616h0Z" transform="translate(-117.96867 -312.20781)" fill="#fff"/>
  <path d="M385.48544,343.64795a0.57215,0.57215,0,0,0-.15512.25287,3.35511,3.35511,0,0,1-.74414.58749,16.66911,16.66911,0,0,1-2.47526,1.31056,1.88706,1.88706,0,0,0-.67266,2.56536,1.92355,1.92355,0,0,0,2.56536.67266c2.2777-.98549,5.2041-2.55748,5.23181-5.38894,0.02363-2.41373-3.72635-2.41569-3.75,0h0Z" transform="translate(-117.96867 -312.20781)" fill="#fff"/>
  <path d="M401.62334,318.21144c0.023,0.1485,1.01538-.94553,1.28973-0.93087,0.49866,0.02665,1.18037,1.09738,1.52356,1.39654a4.26217,4.26217,0,0,0,3.43262,1.24544c3.00444-.42952,3.13522-3.53287,2.86032-5.92707-0.2721-2.36977-4.02526-2.39732-3.75,0a10.39217,10.39217,0,0,1,.176,2.21166c0.03876-.00559-1.02622-1.16814-1.19823-1.32539a4.26978,4.26978,0,0,0-3.51862-1.30522,5.23122,5.23122,0,0,0-4.43146,5.63181c0.36781,2.3776,3.98187,1.36783,3.616-.9969h0Z" transform="translate(-117.96867 -312.20781)" fill="#fff"/>
  <path d="M504.55008,321.7351a210.06628,210.06628,0,0,1-6.22717,22.15891l3.616,0.9969c1.57918-5.73319,3.30554-11.44012,5.3548-17.02491l0.80323-2.10757q0.67369-1.4686.9782-.094c0.9575,0.47632,1.34583,3.24988,1.67379,4.42854,0.62579,2.24906,2.5552,9.568.30841,11.3829l2.27217-.29318-0.534-.26191c-2.15875-1.05881-4.06158,2.17424-1.8927,3.238l0.534,0.26191a1.97661,1.97661,0,0,0,2.27217-.29318c3.16429-2.55612,1.94373-8.57641,1.332-12.02525-0.52413-2.95494-1.82179-9.75555-5.11049-11.11917-2.98249-1.23665-4.78474,2.164-5.70194,4.36867a156.51249,156.51249,0,0,0-5.90568,18.5422c-0.64648,2.347,2.8423,3.26329,3.616.9969a210.06635,210.06635,0,0,0,6.22717-22.15891c0.52451-2.351-3.08995-3.355-3.616-.9969h0Z" transform="translate(-117.96867 -312.20781)" fill="#fff"/>
  <path d="M500.63989,337.74142l12.437-1.48949c2.36655-.28343,2.39509-4.03684,0-3.75l-12.437,1.48949c-2.36655.28343-2.39509,4.03684,0,3.75h0Z" transform="translate(-117.96867 -312.20781)" fill="#fff"/>
  <path d="M553.963,325.91951c-0.72718,3.14918-1.33,6.318-1.77843,9.51925-0.29052,2.07409-.74021,4.41691.44981,6.29633,2.54991,4.02713,8.22077,2.37318,11.18159-.0749,1.86144-1.53909-.80438-4.179-2.65165-2.65165-1.42488,1.17813-4.66577,2.63458-5.57137-.07405-0.29417-.87986.28-3.02853,0.38112-3.704,0.41846-2.79391.96946-5.56187,1.605-8.31411,0.54232-2.34859-3.07243-3.35113-3.616-.9969h0Z" transform="translate(-117.96867 -312.20781)" fill="#fff"/>
  <path d="M553.42766,336.53651c2.79726-.88089,7.95256,1.09156,9.46517-2.44784,0.93792-2.19467-2.2915-4.10748-3.238-1.8927-0.16586.38811-.129,0.29988-0.70789,0.30882-0.56163.00867-1.12294-.01131-1.68445-0.00009a16.895,16.895,0,0,0-4.83171.41576c-2.29384.72236-1.31421,4.34384,0.9969,3.616h0Z" transform="translate(-117.96867 -312.20781)" fill="#fff"/>
  <path d="M555.808,326.47921a11.78975,11.78975,0,0,1,5.4658-.52063,1.88426,1.88426,0,0,0,1.875-1.875,1.92306,1.92306,0,0,0-1.875-1.875,14.29855,14.29855,0,0,0-6.4627.65458c-2.27422.76823-1.29847,4.39143,0.9969,3.616h0Z" transform="translate(-117.96867 -312.20781)" fill="#fff"/>
  <path d="M531.457,327.9576l-0.26989,13.44088c-0.04123,2.05356,3.37322,2.63037,3.683.49845l0.1807-1.24351c0.343-2.36059-3.26977-3.37984-3.616-.9969L531.25413,340.9l3.683,0.49845L535.207,327.9576c0.04847-2.41406-3.70153-2.41387-3.75,0h0Z" transform="translate(-117.96867 -312.20781)" fill="#fff"/>
  <path d="M533.57559,323.87566a1.87612,1.87612,0,0,0,0-3.75,1.87612,1.87612,0,0,0,0,3.75h0Z" transform="translate(-117.96867 -312.20781)" fill="#fff"/>
  <path d="M630.93493,329.0761l-0.17746,14.65571c-0.03006,2.48252,3.455,2.32052,3.75,0l0.17223-1.35483c0.30352-2.38758-3.44929-2.36545-3.75,0l-0.17223,1.35483h3.75l0.17746-14.65571c0.02923-2.41385-3.72075-2.41533-3.75,0h0Z" transform="translate(-117.96867 -312.20781)" fill="#fff"/>
  <path d="M633.14591,324.209a1.87612,1.87612,0,0,0,0-3.75,1.87612,1.87612,0,0,0,0,3.75h0Z" transform="translate(-117.96867 -312.20781)" fill="#fff"/>
  <path d="M674.23725,322.37221a157.77224,157.77224,0,0,0-5.05268,19.11763l3.683,0.49845a8.148,8.148,0,0,1,.83334-4.3601c0.94374-2.19325-2.28583-4.10558-3.238-1.8927a14.932,14.932,0,0,0-1.34533,6.2528c0.00812,2.05161,3.26111,2.62753,3.683.49845a157.77225,157.77225,0,0,1,5.05268-19.11763c0.7628-2.2954-2.85744-3.27965-3.616-.9969h0Z" transform="translate(-117.96867 -312.20781)" fill="#fff"/>
  <path d="M675.58641,325.55715q1.625,8.24765,2.90953,16.55379l2.30647-2.30647-0.542-.30248c-1.731-1.68368-4.38539.96526-2.65165,2.65165a4.08632,4.08632,0,0,0,2.19677,1.26687A1.90141,1.90141,0,0,0,682.112,341.114q-1.28489-8.30743-2.90953-16.55379c-0.46608-2.36561-4.08124-1.3642-3.616.9969h0Z" transform="translate(-117.96867 -312.20781)" fill="#fff"/>
  <path d="M671.74574,339.03232a40.76845,40.76845,0,0,1,8.55822-2.09379c2.36151-.3004,2.39152-4.05421,0-3.75a45.10783,45.10783,0,0,0-9.55512,2.22774c-2.2566.80547-1.284,4.43019,0.9969,3.616h0Z" transform="translate(-117.96867 -312.20781)" fill="#fff"/>
  <path d="M468.449,328.35218l0.66911,14.2819,3.683-.49845c-1.12065-3.94519-1.97009-8.45326-1.1404-12.54276,0.24865-1.22557.34536-2.42694,1.63188-2.81494,1.41178-.42577.65058,0.51677,0.20527,1.40453a8.75032,8.75032,0,0,1-4.43749,4.02756c-1.90951.88754-.55511,4.152,1.4448,3.427,2.04082-.73976,3.57228.294,5.07594,1.52663,2.28923,1.87665,2.86514,3.402,1.90678,6.15485-0.79508,2.28381,2.8263,3.2654,3.616.9969,1.176-3.37811.69173-6.74-2.04038-9.17348-2.66149-2.37061-5.965-4.42235-9.55528-3.12095l1.4448,3.427a11.79156,11.79156,0,0,0,6.77587-7.93981c0.60964-2.74582-.33662-5.7194-3.61371-5.60658-9.188.31634-6.39788,16.06384-4.93016,21.23088,0.56367,1.98439,3.78443,1.666,3.683-.49845l-0.66911-14.2819c-0.11257-2.4028-3.86321-2.41653-3.75,0h0Z" transform="translate(-117.96867 -312.20781)" fill="#fff"/>
  <path d="M549.12378,323.648c-3.5227-.89409-5.73855-0.18931-8.4113,2.22485-2.6527,2.396-4.66255,5.448-4.59216,9.14135,0.14125,7.41142,6.828,11.28895,13.56391,9.20882,2.2988-.7099,1.3181-4.33095-0.9969-3.616-4.2052,1.29862-8.56688-.45625-8.78195-5.33713-0.17359-3.93946,3.93945-9.09262,8.2215-8.00581,2.34,0.59392,3.33827-3.02179.9969-3.616h0Z" transform="translate(-117.96867 -312.20781)" fill="#fff"/>
  <path d="M465.31955,336.04786c5.53211-1.45149-.44171-8.97632-2.8274-10.56327-6.09027-4.05121-10.1197,1.502-10.91607,7.29454-0.71954,5.2337.99914,12.55507,7.78559,11.29215,7.26788-1.35251,6.64045-9.52668,6.56941-15.10431-0.03071-2.41123-3.7808-2.41788-3.75,0,0.03235,2.53987.52511,5.2776-.13984,7.76981-1.134,4.25036-6.11726,5.16111-6.77148.129-0.29935-2.30252-.2208-6.23625,1.51974-8.05108,1.54656-1.61257,3.504-.51618,4.79873.73621,0.54242,0.52468,1.78022,3.13123,2.73442,2.88088-2.3323.61194-1.34328,4.23005,0.9969,3.616h0Z" transform="translate(-117.96867 -312.20781)" fill="#fff"/>
  <path d="M638.13346,324.793v19.59878a1.87612,1.87612,0,0,0,3.75,0V324.793a1.87612,1.87612,0,0,0-3.75,0h0Z" transform="translate(-117.96867 -312.20781)" fill="#fff"/>
  <path d="M638.19106,325.66445l4.87086,10.16307a27.58134,27.58134,0,0,1,2.24413,5.8673,5.23822,5.23822,0,0,0,.87282,2.4401,1.90489,1.90489,0,0,0,2.94483.37948,10.086,10.086,0,0,0,2.80153-7.09817c0.21411-4.62054.20674-9.06982,1.08-13.6548,0.44916-2.35832-3.16433-3.36865-3.616-.9969a64.55126,64.55126,0,0,0-1.16753,9.50626c-0.128,3.20838.69918,7.09178-1.74959,9.592l2.94483,0.37948c-0.55423-.75113-0.62841-2.77285-0.93612-3.65675a46.54712,46.54712,0,0,0-2.18083-4.65066l-4.87086-10.16307c-1.0426-2.17539-4.27708-.27531-3.238,1.8927h0Z" transform="translate(-117.96867 -312.20781)" fill="#fff"/>
  <path d="M692.02083,323.79121c-3.95782-.04878-7.531,3.54982-5.84509,7.64845,0.92773,2.25535,3.47045,3.69644,5.009,5.512,0.91377,1.07823,1.54477,1.6628,1.48635,3.14188-0.06978,1.76676.004,1.07662-1.28015,1.5481-2.89871,1.06427-6.1169-.8894-4.94225-4.09351,0.83194-2.26928-2.79083-3.24785-3.616-.9969-2.698,7.35936,5.74757,10.80152,11.50758,8.11047,2.519-1.17687,3.16353-3.78214,2.23781-6.30568a14.80136,14.80136,0,0,0-3.15415-4.53c-1.0235-1.13227-7.13989-6.3555-1.4031-6.28479,2.41386,0.02975,2.41529-3.72023,0-3.75h0Z" transform="translate(-117.96867 -312.20781)" fill="#fff"/>
  <path d="M655.16279,324.12771a91.4523,91.4523,0,0,1-.60908,18.96173c-0.32853,2.36018,3.28423,3.38065,3.616.9969a96.02476,96.02476,0,0,0,.743-19.95863c-0.16513-2.39439-3.91639-2.41266-3.75,0h0Z" transform="translate(-117.96867 -312.20781)" fill="#fff"/>
  <path d="M663.95357,323.36194a69.53258,69.53258,0,0,0,1.70185,22.47008c0.56317,2.34556,4.18011,1.35241,3.616-.9969a66.39279,66.39279,0,0,1-1.56789-21.47318c0.20989-2.4037-3.54134-2.38961-3.75,0h0Z" transform="translate(-117.96867 -312.20781)" fill="#fff"/>
  <path d="M657.58009,335.88623h6.924a1.87612,1.87612,0,0,0,0-3.75h-6.924a1.87612,1.87612,0,0,0,0,3.75h0Z" transform="translate(-117.96867 -312.20781)" fill="#fff"/>
  <path d="M518.0932,324.23368q0.198,9.12954-.21244,18.24824a1.90366,1.90366,0,0,0,2.37345,1.808l7.19076-1.05107c2.379-.34774,1.36757-3.96166-0.9969-3.616l-7.19076,1.05107,2.37345,1.808q0.41043-9.12246.21244-18.24824c-0.05226-2.40956-3.80245-2.41807-3.75,0h0Z" transform="translate(-117.96867 -312.20781)" fill="#fff"/>
</svg>
